<?xml version="1.0" encoding="UTF-8" standalone="no"?>
<!DOCTYPE svg PUBLIC "-//W3C//DTD SVG 1.1//EN" "http://www.w3.org/Graphics/SVG/1.1/DTD/svg11.dtd">
<svg version="1.1" xmlns="http://www.w3.org/2000/svg" xmlns:xlink="http://www.w3.org/1999/xlink" preserveAspectRatio="xMidYMid meet" viewBox="-1 277.95791583166334 86.1002004008016 86.08416833667337"><defs><path d="M73.63 278.99L74 279.03L74.37 279.08L74.73 279.15L75.08 279.23L75.43 279.32L75.78 279.43L76.12 279.55L76.45 279.69L76.78 279.83L77.1 279.99L77.41 280.16L77.72 280.34L78.01 280.54L78.3 280.74L78.59 280.96L78.86 281.18L79.12 281.42L79.38 281.67L79.62 281.92L79.86 282.18L80.09 282.46L80.3 282.74L80.51 283.03L80.7 283.33L80.89 283.63L81.06 283.95L81.22 284.27L81.36 284.59L81.5 284.92L81.62 285.26L81.73 285.61L81.82 285.96L81.91 286.31L81.97 286.68L82.03 287.04L82.07 287.41L82.09 287.78L82.1 288.16L82.1 351.84L82.09 352.22L82.07 352.59L82.03 352.96L81.98 353.32L81.91 353.69L81.83 354.04L81.73 354.39L81.63 354.74L81.5 355.08L81.37 355.41L81.22 355.73L81.06 356.05L80.89 356.37L80.71 356.67L80.52 356.97L80.31 357.26L80.1 357.54L79.87 357.82L79.63 358.08L79.39 358.33L79.13 358.58L78.87 358.82L78.59 359.04L78.31 359.26L78.02 359.46L77.72 359.66L77.42 359.84L77.11 360.01L76.79 360.17L76.46 360.31L76.13 360.45L75.79 360.57L75.44 360.68L75.09 360.77L74.74 360.85L74.38 360.92L74.01 360.97L73.65 361.01L73.27 361.03L72.9 361.04L9.2 361.04L8.83 361.03L8.45 361.01L8.08 360.97L7.72 360.92L7.36 360.85L7 360.77L6.65 360.68L6.31 360.57L5.97 360.45L5.63 360.31L5.31 360.17L4.99 360.01L4.67 359.84L4.37 359.66L4.07 359.46L3.78 359.26L3.5 359.04L3.23 358.82L2.96 358.58L2.71 358.34L2.46 358.08L2.23 357.82L2 357.55L1.78 357.26L1.58 356.97L1.39 356.68L1.2 356.37L1.03 356.06L0.87 355.74L0.73 355.41L0.59 355.08L0.47 354.74L0.36 354.4L0.27 354.05L0.19 353.7L0.12 353.34L0.07 352.97L0.03 352.6L0.01 352.23L0 351.86L0 288.16L0.01 287.78L0.03 287.41L0.07 287.04L0.12 286.68L0.19 286.31L0.27 285.96L0.36 285.61L0.47 285.26L0.59 284.92L0.73 284.59L0.87 284.27L1.03 283.95L1.2 283.63L1.39 283.33L1.58 283.03L1.78 282.74L2 282.46L2.23 282.18L2.46 281.92L2.71 281.67L2.96 281.42L3.23 281.18L3.5 280.96L3.78 280.74L4.07 280.54L4.37 280.34L4.67 280.16L4.99 279.99L5.31 279.83L5.63 279.69L5.97 279.55L6.31 279.43L6.65 279.32L7 279.23L7.36 279.15L7.72 279.08L8.08 279.03L8.45 278.99L8.83 278.97L9.2 278.96L72.88 278.96L73.26 278.97L73.63 278.99ZM21.87 292.65L21.61 292.68L21.36 292.72L21.12 292.76L20.87 292.82L20.63 292.89L20.4 292.96L20.17 293.05L19.94 293.14L19.72 293.24L19.5 293.35L19.29 293.47L19.08 293.6L18.88 293.73L18.69 293.88L18.5 294.03L18.31 294.18L18.14 294.35L17.97 294.52L17.8 294.7L17.65 294.88L17.5 295.07L17.35 295.27L17.22 295.47L17.09 295.67L16.97 295.89L16.86 296.1L16.76 296.32L16.67 296.55L16.58 296.78L16.51 297.02L16.44 297.25L16.39 297.5L16.34 297.74L16.3 297.99L16.28 298.24L16.26 298.5L16.26 298.76L16.26 298.91L16.26 299.06L16.27 299.21L16.29 299.36L16.3 299.51L16.32 299.66L16.35 299.8L16.37 299.95L16.4 300.09L16.44 300.23L16.48 300.37L16.52 300.51L16.56 300.65L16.61 300.79L16.66 300.92L16.71 301.06L16.76 301.19L16.82 301.32L16.89 301.45L16.95 301.57L17.02 301.7L17.09 301.82L17.16 301.94L17.24 302.06L17.32 302.18L17.4 302.3L17.48 302.41L17.57 302.53L17.65 302.64L17.75 302.74L17.84 302.85L17.93 302.95L18.03 303.05L18.13 303.15L18.23 303.25L18.34 303.35L18.44 303.44L18.55 303.53L18.66 303.62L18.66 343.7L18.68 344.06L18.72 344.4L18.78 344.73L18.88 345.03L18.99 345.32L19.13 345.59L19.28 345.84L19.46 346.07L19.65 346.28L19.86 346.47L20.08 346.64L20.32 346.79L20.56 346.93L20.82 347.04L21.08 347.14L21.35 347.21L21.62 347.27L21.9 347.31L22.18 347.33L22.47 347.33L22.75 347.31L23.03 347.27L23.3 347.22L23.57 347.14L23.83 347.04L24.09 346.93L24.33 346.8L24.57 346.64L24.79 346.47L25 346.28L25.19 346.07L25.36 345.84L25.52 345.59L25.66 345.32L25.77 345.04L25.86 344.73L25.93 344.4L25.97 344.06L25.99 343.7L25.99 335.39L27.13 334.84L28.24 334.34L29.3 333.89L30.33 333.5L31.32 333.16L32.27 332.86L33.19 332.61L34.08 332.4L34.93 332.23L35.76 332.1L36.55 332.01L37.32 331.95L38.06 331.92L38.78 331.92L39.47 331.94L40.14 332L40.78 332.07L41.41 332.17L42.02 332.28L42.61 332.41L43.18 332.56L43.74 332.71L44.29 332.88L44.82 333.05L45.34 333.23L45.85 333.41L46.35 333.59L46.85 333.77L47.33 333.94L47.82 334.11L48.3 334.27L48.77 334.42L49.25 334.56L49.73 334.68L50.2 334.79L50.68 334.87L51.17 334.94L51.66 334.98L52.15 334.99L52.42 334.99L52.69 334.98L52.96 334.97L53.22 334.95L53.49 334.93L53.75 334.91L54.01 334.88L54.28 334.85L54.54 334.81L54.8 334.77L55.06 334.72L55.32 334.68L55.58 334.63L55.84 334.57L56.09 334.51L56.35 334.45L56.6 334.39L56.86 334.32L57.11 334.25L57.36 334.18L57.62 334.11L57.87 334.03L58.12 333.95L58.37 333.87L58.62 333.79L58.86 333.7L59.11 333.62L59.36 333.53L59.6 333.44L59.85 333.35L60.09 333.25L60.33 333.16L60.58 333.06L60.82 332.97L61.06 332.87L61.3 332.77L61.54 332.67L61.77 332.57L62.01 332.47L62.05 332.46L62.09 332.44L62.13 332.42L62.17 332.4L62.21 332.38L62.25 332.36L62.29 332.33L62.32 332.31L62.36 332.28L62.4 332.26L62.44 332.23L62.48 332.2L62.51 332.17L62.55 332.14L62.59 332.11L62.63 332.08L62.66 332.04L62.7 332.01L62.74 331.97L62.78 331.94L62.81 331.9L62.85 331.86L62.89 331.82L62.92 331.78L62.96 331.74L63 331.7L63.03 331.65L63.07 331.61L63.1 331.56L63.14 331.51L63.17 331.47L63.21 331.42L63.25 331.37L63.28 331.32L63.32 331.26L63.35 331.21L63.39 331.16L63.42 331.1L63.45 331.05L63.45 305.33L63.45 305.27L63.45 305.21L63.44 305.16L63.43 305.1L63.42 305.04L63.4 304.99L63.38 304.93L63.36 304.88L63.34 304.82L63.31 304.77L63.29 304.72L63.26 304.67L63.22 304.62L63.19 304.57L63.15 304.52L63.11 304.48L63.07 304.43L63.03 304.39L62.98 304.35L62.94 304.31L62.89 304.27L62.84 304.23L62.79 304.2L62.73 304.16L62.68 304.13L62.62 304.1L62.57 304.07L62.51 304.05L62.45 304.02L62.39 304L62.33 303.98L62.26 303.96L62.2 303.95L62.14 303.94L62.07 303.92L62 303.92L61.94 303.91L61.87 303.91L61.8 303.9L61.7 303.91L61.57 303.94L61.42 303.98L61.25 304.03L61.07 304.1L60.87 304.17L60.64 304.26L60.41 304.36L60.16 304.47L59.89 304.58L59.61 304.7L59.32 304.83L59.02 304.96L58.7 305.1L58.37 305.23L58.04 305.37L57.7 305.51L57.34 305.65L56.98 305.78L56.62 305.91L56.25 306.04L55.87 306.16L55.49 306.28L55.11 306.39L54.72 306.49L54.34 306.58L53.95 306.66L53.56 306.73L53.18 306.79L52.79 306.83L52.41 306.86L52.03 306.87L51.65 306.86L51.28 306.84L50.92 306.8L50.56 306.74L50.21 306.65L49.87 306.55L49.54 306.42L48.56 306.06L47.62 305.72L46.7 305.42L45.82 305.15L44.96 304.91L44.13 304.7L43.33 304.51L42.56 304.35L41.81 304.22L41.09 304.11L40.38 304.03L39.7 303.97L39.05 303.93L38.41 303.91L37.79 303.9L37.19 303.92L36.6 303.95L36.04 304L35.48 304.07L34.95 304.15L34.42 304.24L33.91 304.35L33.41 304.46L32.92 304.59L32.43 304.72L31.96 304.87L31.49 305.01L31.04 305.17L30.58 305.33L30.13 305.49L29.68 305.66L29.24 305.83L28.8 306L28.36 306.17L27.91 306.33L27.47 306.5L27.02 306.66L26.57 306.81L26.12 306.97L26.12 303.6L26.23 303.51L26.34 303.42L26.44 303.33L26.55 303.23L26.65 303.14L26.75 303.04L26.85 302.94L26.94 302.83L27.04 302.73L27.13 302.62L27.22 302.51L27.3 302.39L27.38 302.28L27.46 302.16L27.54 302.05L27.62 301.93L27.69 301.8L27.76 301.68L27.83 301.55L27.89 301.43L27.95 301.3L28.01 301.17L28.06 301.04L28.12 300.9L28.16 300.77L28.21 300.63L28.25 300.5L28.29 300.36L28.33 300.22L28.36 300.08L28.39 299.93L28.42 299.79L28.44 299.64L28.46 299.5L28.48 299.35L28.49 299.21L28.5 299.06L28.5 298.91L28.51 298.76L28.5 298.5L28.48 298.24L28.46 297.99L28.42 297.74L28.37 297.49L28.32 297.25L28.25 297.01L28.18 296.77L28.09 296.54L28 296.32L27.9 296.1L27.78 295.88L27.67 295.67L27.54 295.46L27.4 295.26L27.26 295.06L27.11 294.87L26.95 294.69L26.79 294.51L26.62 294.34L26.44 294.18L26.26 294.02L26.07 293.87L25.87 293.73L25.67 293.6L25.46 293.47L25.25 293.35L25.04 293.24L24.81 293.14L24.59 293.05L24.36 292.96L24.12 292.89L23.88 292.82L23.64 292.76L23.4 292.72L23.15 292.68L22.89 292.65L22.64 292.64L22.38 292.63L22.12 292.64L21.87 292.65Z" id="a1u73d3ti2"></path></defs><g><g><use xlink:href="#a1u73d3ti2" opacity="1" fill="#228ae6" fill-opacity="1"></use><g><use xlink:href="#a1u73d3ti2" opacity="1" fill-opacity="0" stroke="#000000" stroke-width="1" stroke-opacity="0"></use></g></g></g></svg>