
<svg width="273px" height="320px" viewBox="0 0 273 320" version="1.1" xmlns="http://www.w3.org/2000/svg" xmlns:xlink="http://www.w3.org/1999/xlink">
        <g id="IncreateLogo" fill="#000000" fill-rule="nonzero">
            <g id="Group" transform="translate(136.200000, 160.000000) scale(-1, 1) rotate(-180.000000) translate(-136.200000, -160.000000) translate(-0.000000, 0.000000)">
                <path d="M131.9,318 C99.9,312.3 69.8,296.6 46.6,273.4
		C16,242.8 0,203.9 0,160 C0,132.9 5.4,110.1 17.1,87.1
		C40.1,42 83,10.5 132.7,2 C139,0.9 148.2,0 153.1,0
		L162,0 L162,22.9 L162,45.7 L170.8,46.3 C211,49
		249.5,77.7 265,116.4 C271.6,132.8 272.4,137.6
		272.4,159.5 C272.4,181.4 271.6,186.2 265,202.6
		C249.5,241.3 211,270 170.8,272.7 L162,273.3 L162,296.6
		L162,320 L152.3,319.9 C146.9,319.9 137.7,319 131.9,318
		Z M181.7,268.6 C225.5,259.3 259.3,225.6 268.5,182
		C276.8,142.5 262.2,100.4 231.2,74.4 C184,34.9
		113.8,40.9 74.4,87.8 C39.5,129.5 39.5,189.5 74.4,231.2
		C92,252.1 117.5,266.1 145.3,270 C153.7,271.2
		172.9,270.4 181.7,268.6 Z" fill="#608BCC" id="Shape"></path>
                <polygon id="Path" fill="#F5A623" points="144 160 144 97 160 97 176 97 176 160 176 223 160 223 144 223"></polygon>
            </g>
        </g>
</svg>
