
<svg width="949px" height="623px" viewBox="0 0 949 623" version="1.1" xmlns="http://www.w3.org/2000/svg" xmlns:xlink="http://www.w3.org/1999/xlink">
    <g id="Page-1" stroke="none" stroke-width="1" fill="none" fill-rule="evenodd" fill-opacity="0.15">
        <g id="World_map_-_low_resolution" fill="#b0c5e6" fill-rule="nonzero">
            <polygon id="kalimantan" points="780.68 324.4 778.37 333.08 765.84 337.31 762.09 332.91 760.27 333.41 763.67 346.53 768.76 347.1 775.55 349.67 775.55 352.24 778.66 351.67 783.19 345.4 783.19 340.27 785.74 335.14 788.57 335.71 785.17 328.58 784.65 323.99"></polygon>
            <polygon id="papua-new-guinea" points="851.76 348.29 851.39 372.73 854.91 372.54 859.54 367.13 863.43 367.32 865.93 369.56 866.76 376.46 874.72 380.66 876.76 379.91 876.76 377.39 870.37 372.07 867.22 364.79 869.72 363.58 867.87 359.57 864.17 359.48 863.24 355.19 853.43 348.57"></polygon>
            <polygon id="mexico" points="136.49 225.43 141.32 240.64 139.07 241.9 139.32 244.92 143.57 248.19 143.57 254.24 148.82 259.28 146.57 244.42 143.57 234.59 144.32 227.79 146.82 228.04 147.82 230.31 146.82 236.1 159.82 261.54 159.82 270.61 170.32 282.95 181.82 288.24 186.57 285.47 193.32 291.01 197.32 286.98 195.57 282.44 201.32 280.68 203.07 281.69 204.82 279.93 207.57 279.93 212.57 271.11 210.07 268.84 200.32 271.11 198.07 277.66 192.32 278.67 185.57 275.9 182.57 266.33 184.84 254.26 180.2 251.37 177.99 239.78 176.14 238.99 172.76 242.42 168.88 240.35 167.36 232.62 151.99 231.01 144.05 225.04"></polygon>
            <polygon id="estonia" points="516.77 143.66 511.17 143.46 507.62 145.63 507.57 147.24 509.87 149.41 517.02 150.62"></polygon>
            <polygon id="algeria" points="472.88 227.49 468.8 226.12 451.82 229.31 448.12 232.12 450.38 243.79 443.63 244.06 439.57 250.59 429.9 252.91 429.93 257.66 461.78 282.01 467.21 282.47 485.32 268.32 483.51 266.04 480.11 265.58 478.07 262.16 478.07 248.01 476.71 246.64 476.94 242.99 473.32 239.34 472.87 235.46 474.45 234.32 473.77 230.21"></polygon>
            <polygon id="morocco" points="447.29 232.28 435.74 232.28 433.48 237.3 428.27 239.81 423.97 251.45 415.59 256.47 403.82 275.86 415.37 275.63 415.82 269.93 418.76 269.93 418.76 262.17 428.95 262.17 429.18 252.13 438.92 249.85 443 243.23 449.34 243"></polygon>
            <polygon id="mauretania" points="403.9 276.66 406.08 279.51 405.63 291.83 408.8 289.55 411.06 289.09 414.23 290.23 417.85 295.25 421.25 292.97 437.78 292.74 433.7 265.13 438.08 265.11 429.92 258.86 429.93 262.92 419.6 262.93 419.55 270.68 416.58 270.67 416.2 276.39"></polygon>
            <polygon id="senegal" points="409.12 290.32 405.18 293.18 404.28 294.78 404 296.38 405.45 297.42 410.29 297.35 413.4 296.51 413.75 298.04 413.47 300.06 416.44 301.52 417.06 302.22 421 302.36 421.14 300.62 417.54 296.3 413.53 290.87 411.04 289.83"></polygon>
            <polygon id="gambia" points="405.89 298.34 405.76 299.45 412.68 299.35 413.03 298.32 412.88 297.28 410.89 298.09"></polygon>
            <polygon id="casamance" points="405.79 300.22 407.03 303.23 407.72 301.37 416.13 302.25 412.49 300.38"></polygon>
            <polygon id="bissau" points="407.6 304.53 409 307.3 412.93 303.92 412.97 302.88 408.34 302.21"></polygon>
            <polygon id="guinee" points="409.42 307.94 412.46 312.62 416.42 309.18 420.48 309 423.86 313.49 426.73 315.38 427.81 313.28 428.77 312.74 428.7 308.12 426.79 302.64 420.93 303.29 413.68 302.71 413.64 304.57"></polygon>
            <polygon id="sierra-leone" points="412.93 313.13 418.58 318.59 422.61 313.7 420.09 309.75 416.62 310.1"></polygon>
            <polygon id="liberia" points="419.17 319.19 430.15 326.53 429.89 320.97 426.57 317.06 423.33 314.19"></polygon>
            <polygon id="ivoire" points="431.07 326.75 435.35 323.72 440.67 322.79 446.1 323.96 443.33 319.77 442.52 317.21 443.33 309.64 438.48 309.87 436.28 307.77 431.66 307.89 429.46 308.24 429.69 313.36 428.53 313.83 427.14 316.39 430.72 320.58"></polygon>
            <polygon id="mali" points="418.46 295.84 421.54 293.73 438.66 293.63 434.7 266.09 439.22 265.96 461.09 282.65 464.03 283.07 462.92 292.35 449.17 293.6 438.56 301.52 436.63 306.94 429.26 307.25 427.38 301.84 421.73 302.24 421.95 300.47"></polygon>
            <polygon id="burkina" points="449.59 294.28 453.23 293.99 459.2 302.43 453.66 306.61 449.65 305.58 444.26 305.65 443.39 308.81 438.87 309.03 437.63 307.34 439.23 302.2"></polygon>
            <polygon id="niger" points="459.89 302 462.44 301.94 464.74 298.49 468.6 297.8 472.71 300.31 481.48 300.56 488.26 297.8 490.81 295.61 491 292.73 495.73 287.96 496.98 277.43 493.87 270.91 485.91 268.97 467.49 283.33 464.88 283.08 463.76 293.05 454.36 293.99"></polygon>
            <polygon id="ghana" points="443.34 317.05 444.46 319.68 447.38 324.26 449 324.2 453.42 321.69 453.11 307.4 449.69 306.4 444.9 306.53"></polygon>
            <polygon id="togo" points="454.22 321.25 456.9 319.68 456.84 309.33 455.1 306.51 453.98 307.45"></polygon>
            <polygon id="benin" points="457.71 319.49 459.83 319.49 459.95 313.47 462.63 309.58 462.51 302.81 460.08 302.75 455.91 306.01 457.65 309.33"></polygon>
            <polygon id="nigeria" points="460.57 319.37 464.49 319.56 469.22 324.83 471.52 325.46 473.32 324.58 476.06 324.2 476.99 320.38 480.72 317.93 484.76 317.74 492.16 304.13 492.04 301.06 488.62 298.43 481.78 301.44 472.63 301.31 468.27 298.55 465.16 299.24 463.54 302.06 463.42 310.02 460.81 313.72"></polygon>
            <polygon id="tunisia" points="473.91 227.33 479.44 225.1 481.26 226.28 481.33 227.72 480.48 228.83 480.61 230.8 481.46 231.26 481.46 234.8 480.48 236.44 480.61 237.49 484.32 238.8 481.33 243.45 480.16 243.38 479.96 247.12 478.66 247.32 477.55 246.34 477.81 242.54 474.17 239 473.71 235.92 475.47 234.54"></polygon>
            <polygon id="libya" points="479.05 248.03 480.61 247.77 481.07 244.17 481.85 244.17 485.04 238.93 492.91 241.22 495.06 244.56 502.8 248.1 506.83 246.4 506.44 244.7 504.68 243 504.88 241.82 507.74 239.4 513.4 239.4 515.55 242.28 520.1 242.94 520.69 279.83 517.31 279.7 496.89 269.08 494.68 270.33 486.29 268.23 484.01 265.22 480.69 264.76 479 261.75"></polygon>
            <polygon id="egypt" points="520.93 243.06 523.6 243.13 528.8 244.57 531.27 244.64 534.33 242.08 535.76 242.08 538.36 243.52 541.65 243.52 542.24 243.48 544.32 249.46 544.91 251.39 545.46 254.28 544.48 255 542.79 254.15 540.84 247.79 539.08 247.66 538.95 249.82 540.12 253.56 549.49 265.16 549.69 270.14 546.96 273.29 521.32 273"></polygon>
            <polygon id="chad" points="491.79 296 491.92 293.05 496.66 288.44 497.93 277.12 494.77 271.08 496.98 269.95 518.38 281.1 518.25 292.04 514.48 295.25 514.48 300.89 516.95 305.67 512.59 305.67 505.37 312.81 505.18 314.97 499.85 314.9 499.78 315.88 496.74 315.48 494.66 311.55 493.1 310.78 493.3 309.58 495.26 308.08 495.26 301.06 492.55 300.64 489.28 298.21 491.79 296"></polygon>
            <polygon id="south_sudan" points="548.08398 310.33984 545.14062 305.39648 544.83203 301.80078 544.125 301.93555 543.93359 303.04297 540.07617 308.67773 536.99805 307.20898 533.92773 309.78125 527.57617 309.41602 524.76562 307.16992 520.73242 309.23438 520.58008 310.60938 519.34961 311.34961 531.66992 324.0293 538.38086 324.41016 539.35938 325.90039 548.96094 326.07031 549.03906 323.91992 549.85938 322.42969 553.06055 322.01953 549.07031 316.23047 546.13086 316.23047 545.38086 312.11914 547.74023 311.08008"></polygon>
            <polygon id="sudan" points="551 270.60938 547.31055 274.33008 521.50977 274.09961 521.78906 280.66992 519.33008 280.59961 519.15039 292.42969 515.41992 295.64062 515.26953 300.58008 517.96094 305.89062 520.91016 307.63086 520.86523 308.04492 524.88477 305.98633 527.95117 308.43555 533.58984 308.75977 536.84766 306.03125 539.73438 307.40625 542.98438 302.6582 543.25781 301.08203 545.73438 300.61133 546.11914 305.08203 548.5957 309.24219 554.59961 296.33008 554.59961 288.48047 558.96094 283.33984"></polygon>
            <polygon id="cameroon" points="476.82 324.28 480.04 327.24 479.81 331.82 497.47 331.41 498.91 329.79 493.85 324.34 493.1 322.37 496.32 316.34 494.13 312.34 492.29 311.35 492.29 309.32 494.42 307.93 494.54 301.61 492.85 301.42 492.82 304.74 485.4 318.59 480.86 318.82 477.75 320.96"></polygon>
            <polygon id="eritrea" points="555.71 294.7 555.46 288.81 559.42 284.19 560.49 285.01 562.44 291.53 571.8 298.5 570.1 300.59 563.25 294.7"></polygon>
            <polygon id="djibouti" points="570.48 301.54 569.91 304.9 573.87 304.84 573.93 299.9 572.48 299.01"></polygon>
            <polygon id="ethiopia" points="548.49 311.76 555.77 295.56 563 295.6 569.41 301.17 568.96 305.76 573.93 305.76 574.44 308.52 582.48 313.33 587.44 313.58 578.01 323.71 565.06 327.7 561.85 327.7 556.13 322.82 553.87 321.87 549.49 315.42 546.6 315.46 546.26 312.5"></polygon>
            <polygon id="somaliland" points="574.74 305.04 578.82 307.82 580.03 307.76 590.16 304.28 591.31 307.99 590.5 311.12 588.31 312.86 582.84 312.51 575.01 307.7"></polygon>
            <polygon id="soqotra" points="598.62 299.65 600.75 302.03 603.63 300.29 604.67 299.94 603.35 298.66 600.82 299.41"></polygon>
            <polygon id="somalia" points="590.97 304.05 595.34 302.37 596.89 303.3 596.72 307.18 592.69 318.66 570.88 342.02 568.35 340.28 568.18 330.42 571.46 326.65 578.42 324.5 588.63 313.72 591.3 311.34 592.05 307.86"></polygon>
            <polygon id="centrafrique" points="494.66 324.05 499.32 329.09 501.16 326.71 504.09 326.83 504.72 324.51 507.6 322.71 513.58 326.83 517.03 323.41 530.42 324 518 311.18 519.67 310.14 519.9 307.88 517.08 306.55 512.94 306.55 506.27 313.16 506.04 315.88 500.75 315.71 500.58 316.87 497.13 316.52 494.02 322.43"></polygon>
            <polygon id="sao-tome" points="469.74 337.15 470.89 336.57 471.75 337.27 470.89 338.6 469.85 338.19"></polygon>
            <polygon id="principe" points="472.05 333.5 473.78 333.21 474.36 334.31 473.5 335.24 472.64 335.12"></polygon>
            <polygon id="bioko" points="475.84 327.41 475.38 329.38 476.76 330.13 478.08 329.14 477.62 327.11"></polygon>
            <polygon id="gabon" points="485.39 332.63 485.27 335.12 479.63 335 476.18 341.67 484.29 350.54 486.3 348.86 486.24 347.12 484.86 346.48 484.86 345.26 487.97 343.29 490.73 345.38 493.78 345.44 493.72 334.95 488.89 334.72 488.83 332.52"></polygon>
            <polygon id="equatorial-guinea" points="479.99 332.69 479.93 334.08 484.47 334.31 484.41 332.74"></polygon>
            <polygon id="congo" points="490 332.52 489.94 333.97 494.72 334.09 494.89 346.5 490.52 346.38 487.99 344.41 486.03 345.51 485.94 346.06 486.95 346.55 487.24 349.1 484.54 351.42 485.12 352.64 488.11 350.32 489.55 350.32 490.01 351.71 491.91 352.52 498.01 347.36 497.89 343.59 499.16 340.52 503.07 337.62 504.12 327.81 501.34 327.82 498.12 332.23"></polygon>
            <polygon id="cabinda" points="485.55 353.23 487.29 355.49 489.54 353.36 488.88 351.15 488.32 351.11"></polygon>
            <polygon id="drc" points="488.38 355.71 498.69 355.53 500.78 358.5 500.7 360.69 501.47 361.39 506.59 361.39 508.06 358.5 510.15 358.5 511 359.36 513.87 359.28 514.72 369.36 519.68 369.52 519.68 370.3 533.01 376.31 533.63 377.48 536.42 377.48 536.11 373.26 531.07 370.84 531.38 367.64 533.55 362.56 538.51 362.4 534.25 348.26 534.33 342.25 541.07 331.71 541.15 330.23 540.14 329.68 540.18 326.82 538.95 326.71 537.71 325.13 517.36 324.21 513.63 327.84 507.52 323.82 505.37 325.14 503.81 338.27 499.95 341.25 498.79 343.89 499 347.8 492.04 353.49 490.19 352.65 490.44 353.74"></polygon>
            <polygon id="rwanda" points="536.82 339.9 539.63 342.49 539.51 345.26 535.15 345.35 535.15 342.29"></polygon>
            <polygon id="burundi" points="535.21 346.21 539.48 346.12 538.37 349.86 537.29 350.8 535.97 350.8 535.03 348.27"></polygon>
            <polygon id="uganda" points="537.3 339.09 540.33 341.93 542.23 340.72 547.37 339.88 548.25 339.97 548.58 338.02 551.48 331.92 549.04 326.84 541.13 326.89 541.08 328.98 542.14 330 541.98 332.09"></polygon>
            <polygon id="kenya" points="549.83 326.52 552.49 331.71 549.3 338.4 548.88 340.43 564.81 350.28 569.75 342.52 567.25 340.49 567.2 330.27 570.33 326.85 565.34 328.51 561.57 328.56 555.67 323.58 553.81 322.78 550.36 323.1 549.75 324.12"></polygon>
            <polygon id="tanzania" points="549.57 371.42 567.04 369.28 563.11 361.68 562.9 354.4 564.17 350.92 547.55 340.48 542.34 341.34 540.53 342.68 540.37 345.73 539.2 349.96 537.98 351.41 536.23 351.57 539.58 363.18 545.05 365.75 548.82 365.86"></polygon>
            <polygon id="zambia" points="513.55 384.7 516.72 389.1 521.63 389.4 523.37 390.36 528.51 390.42 532.94 384.21 545.32 378.67 546.4 373.79 544.96 366.8 538.5 363.12 534.19 363.42 532.04 368.18 532.1 370.35 537.18 372.82 537.48 378.19 533.11 378.43 532.03 376.62 519.89 371.44 519.53 375.42 513.79 375.6"></polygon>
            <polygon id="angola" points="487.62 356.71 491.03 369.44 490.95 373.46 485.96 378.82 485.21 387.53 504.41 387.7 510.65 389.96 515.8 389.29 512.8 385.53 512.81 374.79 518.71 374.54 518.71 370.35 513.92 370.15 512.96 360.23 510.94 360.26 509.85 359.28 508.66 359.34 507.08 362.4 501 362.4 499.59 360.98 500.01 358.97 498.35 356.54"></polygon>
            <polygon id="malawi" points="546.16 379.4 549.27 382.65 549.21 386.81 549.81 388.56 553.94 384.1 553.46 378.43 551.25 376.74 549.28 366.79 545.87 366.67 547.42 373.84"></polygon>
            <polygon id="mozambique" points="540.17 413.28 542.86 415.51 549.2 411.65 550.22 405.92 550.22 396.46 560.39 388.14 562.13 388.2 568.29 382.29 567.33 370.11 551 372.17 551.48 375.85 554.29 378.02 554.95 384.65 549.45 390.02 548.13 387.01 548.37 383.03 545.2 379.59 537.42 383.21 544.66 386.89 544.9 397.62 540.11 404.73"></polygon>
            <polygon id="zimbabwe" points="523.66 392.3 532.63 402.43 539.51 404.18 544.12 396.95 543.76 387.37 536.28 383.51 533.47 384.78 529.28 391.17 523.48 391.11"></polygon>
            <polygon id="namibia" points="495.55 421.96 498.9 422.2 500.87 424.19 505.54 424.25 506.68 410.99 506.68 402.31 509.67 401.71 510.81 392.61 518.41 392.37 521.1 390.14 516.55 389.96 510.39 390.8 503.75 388.39 485.09 388.39 485.57 393.69 491.79 402.85 490.71 407.55 490.77 410.02"></polygon>
            <polygon id="botswana" points="507.51 411.23 509.66 411.89 509.36 418.04 511.57 418.34 516.65 413.76 522.75 414.42 524.37 410.32 532.09 403.27 522.82 392.6 522.7 390.85 521.68 390.55 518.87 393.14 511.57 393.32 510.55 402.42 507.68 403.08"></polygon>
            <polygon id="swaziland" points="539.87 414 537.36 414.42 536.28 417.37 538.2 419.12 540.53 419.12 542.5 416.29"></polygon>
            <polygon id="lesotho" points="526.41 425.39 529.46 423.04 530.9 423.1 532.64 425.27 532.46 427.44 529.53 428.52 529.53 429.36 526.3 429.18 525.52 426.83"></polygon>
            <path d="M533.16,403.63 L525.26,410.93 L523.38,415.44 L517.12,414.66 L511.91,419.29 L508.45,418.95 L508.73,412.55 L507.5,412.12 L506.64,425.21 L500.5,425.15 L498.65,422.97 L495.94,422.94 L498.41,430.03 L502.82,434.2 L499.67,437.87 L501.71,442.47 L506.43,444.27 L510.19,441.07 L520.96,441.13 L521.73,440.17 L526.51,439.33 L542.68,423.23 L542.62,418.16 L540.89,420.4 L538.3,420.4 L535.15,417.76 L536.75,413.78 L539.5,413.22 L539.25,405.04 L533.16,403.63 L533.16,403.63 Z M529.37,422.13 L530.88,422.07 L533.33,424.73 L533.26,427.81 L530.39,429.26 L530.21,430.28 L525.83,430.33 L524.46,427.03 L525.71,424.61 L529.37,422.13 L529.37,422.13 Z" id="south-africa"></path>
            <polygon id="greenland" points="320.13 50.07 318.77 52.24 321.22 54.69 320.13 57.14 323.67 61.76 328.02 60.4 333.73 59.86 340.26 66.93 344.61 78.62 341.08 85.96 345.97 85.14 348.69 86.77 348.96 90.31 342.98 90.58 346.24 93.84 350.32 94.66 341.35 106.62 340.26 113.96 342.16 119.94 340.8 123.48 343.25 131.09 347.87 136.26 349.23 135.99 352.22 135.17 352.49 139.52 354.39 142.24 357.92 141.97 360.64 131.91 368.8 121.85 381.04 116.96 388.65 107.44 392.18 109.07 399.52 109.07 405.5 103.09 412.84 100.1 413.66 95.48 409.04 91.4 404.96 90.04 402.78 84.33 407.95 81.34 416.11 85.69 418.83 82.7 414.48 80.25 423.73 67.74 422.1 62.3 417.75 62.03 419.38 57.14 424.82 54.69 435.97 44.9 432.71 41.37 420.2 42.46 413.67 48.99 417.48 40.56 413.13 39.47 410.68 43.82 407.15 40.83 397.36 41.92 400.08 37.57 416.12 37.03 412.04 31.59 394.64 28.33 387.57 29.42 387.84 32.96 380.5 30.51 380.77 28.06 375.6 29.15 374.51 31.87 379.95 33.77 374.24 37.85 370.16 33.23 364.45 31.6 363.63 35.95 357.92 35.95 355.74 31.33 346.77 29.97 341.88 32.42 341.61 35.68 335.36 34.86 331.55 36.49 331.82 40.3 331.82 42.2 324.75 43.56 321.49 41.39 319.31 44.92 322.57 48.46 329.37 47.64 329.91 49.82 324.74 52.27"></polygon>
            <polygon id="disko" points="341.89 92.49 343.52 94.94 342.7 97.93 341.07 97.93 338.89 95.48 339.43 93.58"></polygon>
            <polygon id="milne" points="409.87 85.69 414.49 87.05 414.22 90.86 409.33 88.41 408.24 87.05"></polygon>
            <polygon id="east-antarctica" points="387.52 622.99 391.35 617.88 406.24 610.22 408.79 604.69 415.17 603.41 421.13 595.75 427.09 595.32 428.37 589.36 433.48 585.53 437.74 586.81 450.08 582.98 453.06 585.96 458.59 586.39 463.7 583.84 494.34 583.41 505.4 586.39 519.44 583.41 524.12 583.84 525.4 579.58 530.08 579.58 536.46 586.39 548.38 578.73 561.57 574.9 566.25 577.88 566.68 571.92 573.49 571.07 580.72 574.47 580.72 577.87 599.02 585.53 604.13 585.1 606.26 587.65 600.3 594.46 600.3 599.14 605.83 602.12 607.11 599.14 632.22 589.35 650.52 587.65 654.35 589.78 668.82 591.91 672.22 593.19 676.9 590.64 683.71 590.21 690.09 594.89 690.52 600 704.99 597.02 707.12 597.87 707.97 602.55 721.16 606.81 725.42 603.83 725.85 607.66 730.53 608.09 736.91 613.2 742.87 610.65 747.98 611.08 751.81 611.08 754.36 610.65 754.79 617.46 763.3 622.57"></polygon>
            <polygon id="antarctic-peninsula" points="259.01 622.99 272.63 619.16 273.48 615.33 287.95 611.93 296.46 614.06 315.18 606.4 314.75 598.32 309.22 589.81 310.5 587.68 308.37 582.15 308.37 576.19 311.77 576.19 309.64 571.93 324.96 558.74 324.53 564.7 321.55 565.55 318.57 570.66 321.55 571.94 318.57 576.2 315.17 575.35 313.47 579.18 313.9 584.29 319.01 583.86 322.41 588.54 323.69 594.5 330.5 603.01 330.93 613.65 328.38 614.93 330.51 620.46 329.23 622.59"></polygon>
            <polygon id="thurston" points="249.22 615.33 254.33 614.48 256.46 616.18 255.61 618.31 255.18 620.86 252.2 622.14 250.07 619.59 241.56 619.59 241.56 617.89 245.39 617.04"></polygon>
            <polygon id="alexander" points="303.69 587.67 299.43 588.52 301.98 593.2 304.96 594.48 303.68 597.03 303.68 598.73 295.59 600.86 296.44 603.41 299.84 604.69 303.67 601.71 307.07 602.56 304.94 605.96 306.22 606.81 310.05 605.11 313.03 599.58"></polygon>
            <polygon id="smyley" points="294.75 606.82 291.35 609.8 294.33 610.65 298.16 611.5 301.99 608.95 298.16 608.1"></polygon>
            <polygon id="robert" points="318.57 556.47 316.08 556.97 315.53 559.52 320.29 558.82"></polygon>
            <polygon id="king-george" points="322.59 552.54 319.6 553.11 320.17 555.42 323.81 555.29"></polygon>
            <polygon id="james-ross" points="327.34 557.17 327.36 560.73 329.41 560.82 331.07 558.18"></polygon>
            <polygon id="elephant" points="328.33 547.24 326.17 548.09 325.62 550.13 327.49 550.81 330.63 548.65"></polygon>
            <polygon id="australia" points="760.17 427.98 759.82 453.36 755.92 456.22 755.57 458.72 760.89 462.29 774.02 459.79 780.76 459.79 783.24 456.21 798.14 453.35 808.78 456.57 808.07 460.86 809.49 465.15 817.65 463.72 818 465.86 812.68 469.79 814.45 471.22 818.35 469.79 817.29 481.59 824.74 487.31 829 485.88 831.13 488.02 843.55 486.23 855.26 467.28 859.52 466.21 868.03 450.48 870.16 436.9 864.84 430.11 866.97 428.68 862.71 415.45 858.1 412.23 858.81 394.36 854.55 391.14 853.49 381.13 851.36 381.13 844.26 404.72 840.36 405.08 831.49 396.14 836.46 382.91 827.24 381.12 816.95 383.98 814.11 392.2 809.5 393.27 809.15 387.55 790.35 398.99 790.7 403.28 787.86 407.21 780.76 407.21 765.5 413.64"></polygon>
            <polygon id="tasmania" points="824.74 496.26 822.97 503.41 823.32 508.41 828.64 508.05 834.67 498.76"></polygon>
            <polygon id="new-zealand-north-island" points="912.02 481.96 913.08 493.76 911.66 499.12 906.34 503.05 906.69 507.7 906.69 512.7 908.11 514.49 922.66 501.98 922.66 499.12 919.11 499.12 914.14 482.32"></polygon>
            <polygon id="new-zealand-south-island" points="901.38 507.7 904.22 513.06 896.41 520.57 895.7 524.5 890.38 525.21 881.51 533.43 873.35 529.5 872.64 526.64 887.54 520.21"></polygon>
            <polygon id="new-caledonia" points="905.64 420.47 905.29 422.26 909.9 428.69 912.38 429.76 912.73 427.26"></polygon>
            <polygon id="sumatra" points="721.48 317.57 721.2 319.85 727.99 331.26 729.97 331.26 744.12 354.93 749.78 355.5 752.61 347.23 748.08 344.38 747.23 339.82"></polygon>
            <polygon id="east-malaysia" points="763.14 332.92 766.16 336.41 777.74 332.4 780.03 323.56 785.19 323.19 789.91 319.77 783.79 315.31 782.39 312.86 779.37 318.43 780.48 321.63 778.64 324.3 775.17 323.41 766.76 329.58 766.98 333.15"></polygon>
            <polygon id="brunei" points="778.77 319.25 775.89 322.74 778.25 323.48 779.58 321.62"></polygon>
            <polygon id="sulawesi" points="788.53 349.11 790.79 351.88 789.32 356.04 789.32 356.83 792.66 356.83 793.84 346.43 794.92 346.73 796.88 356.23 798.75 356.73 800.52 352.67 798.75 346.53 797.28 343.86 801.9 340.49 800.82 339 796.4 341.87 795.22 341.87 793.06 338.7 793.75 337.31 797.39 335.53 802.89 337.21 804.56 337.11 808.69 333.25 807.02 331.57 803.19 334.54 800.73 334.54 797 332.76 794.35 332.86 791.4 337.61 789.53 345.83"></polygon>
            <polygon id="maluku" points="813.19 330.5 811.32 335.05 814.27 338.91 815.25 338.91 816.53 336.34 817.22 335.45 815.94 334.06 814.07 333.37"></polygon>
            <polygon id="seram" points="818.99 345.45 814.96 346.34 813.78 347.63 814.76 349.31 817.41 348.32 819.08 347.33 821.54 349.31 822.62 348.42 820.66 346.04"></polygon>
            <polygon id="java" points="752.17 358.32 749.42 360.2 750.01 361.78 758.76 363.76 763.18 364.55 765.05 366.53 770.06 366.93 772.42 368.91 774.58 368.41 776.55 366.63 772.91 364.95 769.77 362.28 761.61 360.3"></polygon>
            <polygon id="bali" points="780.77 366.93 778.61 368.12 779.89 369.51 783.03 368.32"></polygon>
            <polygon id="lombok" points="784.5 366.04 784.89 367.92 787.15 368.51 788.03 367.42 787.05 365.93"></polygon>
            <polygon id="sumba" points="789.91 370.99 787.16 371.39 789.62 373.47 791.58 373.47"></polygon>
            <polygon id="flores" points="790.69 367.72 790.1 368.91 794.52 369.6 797.96 367.62 796 367.03 792.86 367.92 791.68 366.93"></polygon>
            <polygon id="timor" points="805.14 368.42 800.03 372.68 800.52 373.77 802.68 373.37 805.23 370.99 810.24 370.3 809.26 368.62"></polygon>
            <polygon id="new-ireland" points="879.48 349 878.6 350.25 883.41 354.51 884.07 357.01 885.38 356.86 885.53 354.29 884.07 352.97"></polygon>
            <polygon id="new-britain" points="881.89 355.03 880.94 355.25 880.36 357.82 878.54 359 873.07 359.96 873.29 362.02 879.05 361.73 882.7 359.45 882.48 355.48"></polygon>
            <polygon id="bougainville" points="888.38 359.51 889.62 362.96 891.81 365.09 892.47 364.5 892.25 362.22 889.77 359.21"></polygon>
            <polygon id="choiseul" points="894.43 364.65 894.58 366.93 895.97 368.25 897.28 367.44 896.11 365.01"></polygon>
            <polygon id="new-georgia" points="896.18 370.31 895.01 371.56 896.25 373.84 897.71 374.28 897.64 372.74"></polygon>
            <polygon id="santa-isabel" points="899.03 368.99 900.05 371.49 902.02 373.84 903.11 372.08 901.65 369.58"></polygon>
            <polygon id="malaita" points="904.14 372.74 904.72 375.83 906.11 377.74 907.28 375.32"></polygon>
            <polygon id="santa-ana" points="905.74 379.65 905.23 380.53 906.91 382.74 908.08 382.81 907.35 379.94"></polygon>
            <polygon id="rennell" points="902.02 384.05 900.27 384.86 901.8 386.99 903.11 386.25"></polygon>
            <polygon id="espiritu-santo" points="919.87 397.22 918.63 398.88 919.15 400.75 919.77 401.17 920.9 399.71"></polygon>
            <polygon id="malakula" points="920.49 402.31 920.59 403.66 921.93 404.08 922.86 403.56 921.93 402.1"></polygon>
            <polygon id="efate" points="922.45 414.37 921.83 415.31 922.76 416.35 924.31 415.83"></polygon>
            <polygon id="fiji" points="947.62 412.29 946.38 413.95 946.28 415.82 947.72 417.28"></polygon>
            <polygon id="palawan" points="788.37 297.53 787.51 299.17 787.03 301.19 782.25 307.26 782.54 308.51 784.55 308.22 790.76 301.28"></polygon>
            <polygon id="negros" points="796.11 295.22 796.01 300.23 797.83 302.06 798.5 305.62 800.32 306.01 801.18 303.79 799.75 302.73 799.37 296.47"></polygon>
            <polygon id="cebu" points="801.28 297.15 801.18 301.58 802.23 303.31 804.05 301.19 803.57 297.34"></polygon>
            <polygon id="samar" points="802.42 293.29 804.24 295.7 805.1 298.01 806.73 298.01 806.44 294.06 804.62 292.81"></polygon>
            <polygon id="path7462" points="805.96 302.35 806.34 305.24 802.99 307.94 800.22 308.23 797.26 311.41 797.36 312.86 800.13 311.99 802.04 310.74 803.67 314.88 806.54 316.9 807.69 316.51 808.74 315.26 806.45 312.95 807.79 311.89 809.32 313.14 810.37 311.41 809.32 309.29 809.13 304.57"></polygon>
            <polygon id="luzon" points="790.38 272.97 787.8 274.8 787.51 280.58 791.53 288.38 792.87 289.44 794.59 288.28 797.55 288.76 798.12 291.36 800.32 291.55 801.37 290.11 800.03 288.28 798.4 286.74 794.96 286.36 793.14 283.37 795.24 280.19 795.43 277.4 794 273.84"></polygon>
            <polygon id="mindoro" points="791.72 290.21 792.48 292.91 793.82 293.78 794.78 292.53 793.25 290.41"></polygon>
            <polygon id="hainan" points="758.83 270.17 756.44 270.84 754.72 272.96 756.15 275.75 758.25 275.94 760.64 273.82 761.21 271.03"></polygon>
            <polygon id="taiwan" points="786.46 248.31 782.92 251.01 782.73 256.21 785.79 259.77 786.55 259.1"></polygon>
            <polygon id="kyushu" points="802.23 216.42 800.6 218.06 801.27 220.37 802.7 220.47 803.66 225.48 804.81 226.73 806.82 224.9 807.68 221.62 805.19 218.06"></polygon>
            <polygon id="shikoku" points="811.03 213.15 808.26 215.75 808.16 218.74 808.83 219.61 812.56 216.43 812.27 213.25"></polygon>
            <polygon id="honshu" points="807.2 206.98 802.32 212.57 803.18 213.92 805.57 214.21 810.06 210.74 813.22 210.16 816.09 213.53 818.29 212.76 819.15 209.48 823.26 209.38 827.28 204.56 825.18 196.56 824.22 192.32 826.32 190.59 821.54 183.37 820.3 183.47 817.72 186.36 817.72 188.77 818.87 190.12 819.25 196.48 816.29 200.14 814.57 199.08 813.23 202.07 812.94 204.86 813.99 206.5 813.32 207.75 811.12 205.92 809.59 205.92 808.25 206.69"></polygon>
            <polygon id="hokkaido" points="815.43 163.44 813.9 164.79 814.67 167.68 816.01 169.03 815.91 173.46 814.19 174.13 812.85 177.12 816.77 182.51 819.35 181.64 819.83 180.29 817.06 177.79 818.78 175.57 820.6 175.86 822.03 177.4 822.13 174.22 826.05 171.04 828.25 170.46 826.43 167.38 825.57 166.03 824.14 166.99 822.9 168.53 820.22 167.95 817.45 166.12"></polygon>
            <polygon id="iturup" points="829.86 160.45 827.18 164.21 827.37 166.04 828.71 165.46 831.86 161.51"></polygon>
            <polygon id="urup" points="833.4 154.96 832.44 157.56 832.54 159.29 834.17 158.23 835.7 155.15 835.7 154"></polygon>
            <polygon id="paramushir" points="839.04 132.03 837.8 133.57 837.9 135.98 839.05 135.88 840.96 132.51"></polygon>
            <polygon id="onekotan" points="836.75 137.91 836.75 142.15 838.09 142.63 839.05 141.09 839.05 137.82"></polygon>
            <polygon id="sakhalin" points="797.64 122.59 797.55 128.76 805.29 140.71 808.06 151.11 812.94 160.36 814.85 161.03 816.48 159.68 817.24 157.46 810.26 149.85 810.45 145.9 811.98 145.23 812.36 142.92 798.69 123.56"></polygon>
            <polygon id="bering-island" points="851.57 103.42 849.66 103.61 850.81 105.25 853.2 106.89 853.87 106.12"></polygon>
            <polygon id="medny" points="855.29 104.58 855.58 106.22 858.54 107.09 858.83 105.93"></polygon>
            <polygon id="attu" points="871.54 110.87 872.79 113.11 874.87 112.97 875.29 111.43"></polygon>
            <polygon id="amchitka" points="892.51 114.37 894.18 117.45 895.43 116.05 895.43 113.95"></polygon>
            <polygon id="adak" points="906.81 104.57 904.45 107.65 905 109.05 907.92 107.23 908.2 105.41"></polygon>
            <polygon id="umnak" points="918.61 94.92 916.53 97.44 918.75 98.28"></polygon>
            <polygon id="unalaska" points="921.53 90.72 920.14 92.96 920.28 95.2 922.22 94.36"></polygon>
            <polygon id="st.-lawrence-island" points="880.29 38.39 877.93 39.93 877.37 41.89 878.48 43.15 880.98 42.31 883.48 43.15 884.87 43.57 884.73 38.95"></polygon>
            <polygon id="st.-lawrence-island-west" points="68.17 53.35 71.63 59.82 73.85 59.32 73.85 57.08"></polygon>
            <polygon id="alaska" points="882.4 17.54 878.18 25.11 886.26 30.22 895.31 22.63 900.81 31.8 895.07 32.98 892.8 38.86 905.51 56.08 913.16 57.35 924.19 59.52 925.55 55.52 929.4 57 930.13 73.75 923 85.62 926.44 86.37 935.42 67.45 938.15 53.29 932.61 50.7 931.72 31.7 935.99 32.53 935.95 43.96 940.61 48.03 943.33 38.1 941.15 32.2 947.73 35.35 948.42 0.36 872.66 0.5 868.3 3.85 868.89 10.62 882.32 12.46 892.63 10.11 888.93 17.03"></polygon>
            <polygon id="chukotka" points="0.17 54.95 14.18 56.52 16.52 61.36 27.68 54.82 46.36 52.21 47.66 42.54 57 39.14 63.1 33.39 63.1 41.23 69.33 49.73 82.3 41.5 76.07 34.44 68.29 13.4 58.94 2.67 52.32 2.15 52.06 7.9 46.61 10.65 44.92 7.25 48.16 0.32 0.3 0.45"></polygon>
            <polygon id="wrangel-w" points="77.49 3.32 73.6 6.85 74.77 9.46 76.85 8.02 78.02 9.33 81.9 7.9 81.77 5.68"></polygon>
            <polygon id="unalaska-west" points="48.66 110.26 48.49 113.27 50.65 112.77 50.65 111.43"></polygon>
            <polygon id="umnak-west" points="45.34 111.6 41.02 113.78 41.69 116.12 43.35 114.78 46.67 113.27"></polygon>
            <polygon id="another-aleutian-west" points="27.39 114.44 24.4 113.77 23.9 115.11 24.23 117.62"></polygon>
            <polygon id="adak-west" points="21.07 114.28 18.24 113.11 17.24 114.95 19.07 116.79"></polygon>
            <polygon id="amchitka-west" points="11.27 111.6 9.94 109.76 8.61 110.26 8.61 112.77 10.11 113.77"></polygon>
            <polygon id="attu-west" points="0.47 99.71 2.13 100.88 1.63 102.22 0.47 102.22"></polygon>
            <polygon id="kerguelen" points="621.76 499.62 621.61 503.91 627.55 505.29 628.92 501.76 626.79 502.37 624.05 502.98 623.29 499.76"></polygon>
            <polygon id="mauritius" points="612.01 398.99 610.49 400.98 610.79 403.13 613.99 400.52"></polygon>
            <polygon id="reunion" points="606.38 402.37 604.1 402.52 603.95 404.51 605.47 404.82 607.75 403.75"></polygon>
            <polygon id="madagascar" points="591.3 372.92 589.17 377.98 585.52 384.42 579.13 384.88 576.39 388.1 576.85 397.92 572.89 402.52 573.35 410.34 576.7 414.17 580.66 413.71 584.62 410.79 583.71 406.19 592.84 390.39 591.01 388.4 592.84 384.57 594.82 385.18 595.43 383.65 593.6 375.83 592.53 372.61"></polygon>
            <polygon id="grande-comore" points="576.69 371.23 577.15 372.76 579.13 373.07 579.89 371.08"></polygon>
            <polygon id="mayotte" points="579.58 374.3 580.34 375.99 581.56 375.99 582.17 373.84"></polygon>
            <polygon id="aldabra" points="601.35 358.34 600.74 359.57 602.41 360.95 603.63 359.57"></polygon>
            <polygon id="praslin" points="609.88 349.14 608.05 350.37 609.42 352.52 611.25 352.52"></polygon>
            <polygon id="mahe" points="610.64 354.51 609.42 355.89 610.33 357.27 612 357.58 612.15 354.66"></polygon>
            <polygon id="male" points="655.4 320.76 655.7 323.37 657.37 323.98 657.67 321.68"></polygon>
            <polygon id="maldive" points="657.53 326.28 657.38 329.5 658.6 330.11 659.67 327.96"></polygon>
            <polygon id="gan" points="657.84 332.57 656.77 333.64 657.99 334.71 659.51 333.64"></polygon>
            <polygon id="path151" points="371.64 217.02 370.28 218.39 372.72 219.76 372.99 217.85"></polygon>
            <polygon id="terceira" points="378.97 216.2 377.34 217.29 378.7 218.38 380.87 217.83"></polygon>
            <polygon id="pico" points="380.05 220.03 379.24 222.22 380.32 223.59 381.68 222.5"></polygon>
            <polygon id="sao-miguel" points="386.56 224.4 386.02 225.77 386.83 226.59 389 225.22"></polygon>
            <polygon id="madeira" points="407.18 236.42 406.1 237.79 407.18 239.16 408.81 238.34"></polygon>
            <polygon id="lanzarote" points="414.62 253.73 412.87 254.74 413.68 255.56"></polygon>
            <polygon id="gran-canaria" points="408.54 253.92 406.37 254.47 407.45 256.11 409.08 256.11"></polygon>
            <polygon id="tenerife" points="403.38 252.28 402.02 253.65 403.92 255.29 405 252.83"></polygon>
            <polygon id="santo-antao" points="386.56 290.54 384.66 291.63 386.02 292.72 387.65 291.9"></polygon>
            <polygon id="boa-vista" points="391.23 292.74 389.99 293.84 390.87 295.47 392.99 294.52"></polygon>
            <polygon id="santiago" points="388.52 295.83 386.93 296.78 388.64 299.07 389.99 298.36"></polygon>
            <polygon id="kauai" points="9 248.7 8.86 251.03 10.9 252.4 12.12 251.31"></polygon>
            <polygon id="oahu" points="14.29 252.13 12.39 253.5 14.02 255.55 15.92 253.91"></polygon>
            <polygon id="kahului" points="18.1 255.41 16.47 257.6 17.01 258.97 19.32 257.88"></polygon>
            <polygon id="hawaii" points="20.81 259.65 19.86 265.12 20.81 267.17 23.93 266.21 25.56 263.47 22.16 260.32"></polygon>
            <polygon id="raiatea" points="26.25 402.68 24.35 402.54 24.21 404.32 25.7 405.28 27.47 404.19"></polygon>
            <polygon id="tahiti" points="32.77 404.6 30.05 406.38 32.09 408.84 33.86 408.43 34.81 407.2"></polygon>
            <polygon id="guadeloupe" points="275.6 283.37 274.1 283.99 274.63 285.32 276.39 284.17 276.04 283.81"></polygon>
            <polygon id="dominica" points="278.07 284.88 277.19 286.75 278.25 288.17 279.57 287.02"></polygon>
            <polygon id="martinique" points="281.07 290.03 280.01 291.01 280.8 292.61 282.3 292.17"></polygon>
            <polygon id="st.-lucia" points="280.98 294.03 280.27 295.54 281.42 296.78 282.92 295.98"></polygon>
            <polygon id="st.-vincent" points="281.07 297.85 279.84 298.74 280.81 300.52 282.4 299.63"></polygon>
            <polygon id="grenada" points="279.57 301.31 278.42 302.46 278.86 303.17 280.27 303.17 280.71 302.01"></polygon>
            <polygon id="trinidad" points="281.24 304.78 280.18 305.76 279.03 305.94 279.03 307.36 281.15 309.31 282.03 307.89 282.56 306.29 282.38 304.96"></polygon>
            <polygon id="puerto-rico" points="270.05 281.06 267.41 280.17 265.29 281.5 266.35 282.74 269.96 283.27"></polygon>
            <polygon id="haiti-dominican-border" points="249.87 275.38 248.2 277.09 250.11 277.87 250.39 280.26 246.16 280.63 246.59 282.93 247.82 283.02 248.53 281.96 253.47 282.12 254.36 283.83 255.5 282.49 258.83 281.59 261.76 282.21 262.1 280.44 256.82 276.99 253.4 275.71"></polygon>
            <polygon id="domincan-republic" points="262.11 280.44 256.82 276.98 254.32 276.13 253.48 282.13 254.36 283.82 255.51 282.49 258.86 281.6 261.77 282.22"></polygon>
            <polygon id="haiti" points="249.86 275.38 253.3 275.74 252.89 279.96 252.55 282.18 248.54 281.96 247.83 283.03 246.6 282.94 246.16 280.63 250.39 280.28 250.13 277.88 248.19 277.08"></polygon>
            <polygon id="falklands-west" points="306.95 508.18 304.32 507.89 301.7 509.65 303.6 511.71"></polygon>
            <polygon id="falklands-east" points="309.57 506.86 308.7 509.65 306.22 511.85 306.37 512.58 310.6 510.96 312.35 508.76"></polygon>
            <polygon id="iceland" points="405.36 117.31 403.4 116.2 400.76 117.87 398.49 119.97 398.55 121.14 401.49 121.51 401.31 123.61 400.27 124.66 400.52 125.34 403.46 125.53 403.46 128.93 407.69 129.67 410.2 131.09 413.02 131.21 417.86 128.8 421.6 123.86 421.66 120.52 419.39 118.6 417.49 116.99 416.63 117.61 415.34 119.28 413.87 119.09 412.4 117.48 410.5 117.66 407.74 119.95 406.08 121.74 405.16 120.94 405.1 118.96 406.02 118.34"></polygon>
            <polygon id="spitsbergen" points="487.26 53.96 485.61 52.3 481.95 54.08 475.23 54.08 474.17 58 477.94 61.33 479.59 61.09 481.95 57.05 483.95 58.48 482.53 61.33 481.82 65.49 483.47 68.1 487.01 62.16 491.61 56.57 489.84 55.03"></polygon>
            <polygon id="nordaustlandet" points="489.26 46.83 486.31 49.56 488.08 52.29 491.26 52.29 492.56 54.07 496.45 56.09 500.93 53.48 504 50.87 502.94 48.73 499.87 46.95 497.63 48.97 496.1 47.07 494.92 47.19 493.39 50.52 491.15 48.26 490.91 46.72"></polygon>
            <polygon id="edgeoya" points="495.98 59.07 493.62 61.21 491.62 62.75 492.56 64.41 494.45 65 497.52 63.57 498.94 61.79 497.64 59.65"></polygon>
            <polygon id="prince-george" points="546.82 38.79 548.54 39.48 547.33 41.56 547.33 44.51 544.75 46.07 542 46.07 540.45 44.16 540.62 42.08 541.83 40.52 544.24 40.52"></polygon>
            <polygon id="salisbury" points="553.36 36.88 553.36 38.96 555.08 40.35 557.49 40.18 559.56 38.27 559.56 36.88 557.67 36.88 556.12 37.4 554.91 36.01"></polygon>
            <polygon id="wilczek" points="563.18 37.06 564.39 39.66 566.8 39.83 568.52 39.14 567.66 36.71 565.42 36.19"></polygon>
            <polygon id="bell" points="572.99 33.59 571.1 33.24 569.38 34.98 570.24 36.54 570.76 38.97 573 37.24 573.52 35.33"></polygon>
            <polygon id="novaya-zemlya-north" points="583.49 51.98 582.97 54.41 579.01 57.88 570.57 59.79 563.68 71.24 562.47 74.54 569.36 76.28 570.39 72.12 572.46 65.7 577.8 62.92 582.28 59.45 585.55 58.06 587.27 58.06 587.27 53.38"></polygon>
            <polygon id="novaya-zemlya-south" points="561.28 77.31 565.93 77.83 567.48 83.21 571.44 87.37 570.06 90.15 567.65 90.15 565.41 87.55 560.42 87.38 558.35 84.6 558.35 82.69 561.45 81.82"></polygon>
            <polygon id="komsomolets" points="633.95 18.15 631.71 16.76 629.13 16.76 628.61 18.32 625.86 19.88 623.79 20.57 623.45 22.65 628.27 23"></polygon>
            <polygon id="october" points="639.28 18.67 638.07 21.27 635.66 21.1 631.87 23.88 630.84 27.35 633.25 27.35 634.63 25.09 637.9 27.52 641 26.13 643.24 24.22 642.38 21.27 641.17 19.19"></polygon>
            <polygon id="bolshevik" points="644.28 20.58 645.49 25.44 647.38 29.95 649.45 26.31 653.41 25.44 653.41 22.84 650.83 20.93"></polygon>
            <polygon id="kotelny" points="738.76 12.8 741.45 15.06 743.36 14.27 743.92 11.1 740 8.39 737.42 10.09 731.14 10.66 731.14 13.49 724.52 13.6 724.52 18.23 732.26 23.99 734.28 22.52 733.83 18.45 738.77 17.21 737.76 15.29 735.97 13.48"></polygon>
            <polygon id="novaya-sibir" points="745.94 10.09 747.73 13.48 754.69 12.69 756.6 10.2 756.15 8.05 754.24 7.26 752.45 8.62 747.29 9.75"></polygon>
            <polygon id="lyakhovsky" points="745.49 23.31 742.01 22.41 740 24.56 739.1 27.5 743.81 27.05 747.4 25.24"></polygon>
            <polygon id="wrangel" points="835.68 3.76 832.76 2.86 829.4 4.1 827.72 6.59 829.85 9.42 835.46 6.93 836.58 5.69"></polygon>
            <polygon id="sri-lanka" points="679.54 308.05 679.79 310.77 680.04 312.75 678.57 313 679.31 317.45 681.52 318.69 684.95 316.71 683.97 312.02 684.22 310.29 681.03 307.33"></polygon>
            <polygon id="cuba" points="219.85 266.92 219.85 268.19 225.17 268.29 227.68 266.83 228.07 267.9 233.29 269.17 237.93 273.36 236.87 274.82 237.06 276.48 240.93 277.45 244.8 275.7 246.54 273.95 244.03 272.68 231.08 265.08 226.54 264.59"></polygon>
            <polygon id="bimini" points="238.61 259.13 237.35 258.74 237.25 261.17 238.8 262.73 239.86 261.17"></polygon>
            <polygon id="andros" points="241.12 262.93 239.38 263.9 241.02 266.24 241.89 265.07"></polygon>
            <polygon id="inagua" points="246.73 264.68 244.89 264.58 245.08 265.75 246.43 267.7 247.59 266.43"></polygon>
            <polygon id="eleuthera" points="245.86 262.35 242.86 261.08 242.28 258.06 243.44 257.57 244.6 259.91 245.76 260.79"></polygon>
            <polygon id="grand-bahama" points="242.96 256.21 241.41 255.82 241.12 253.87 239.48 253.29 240.54 252.22 242.47 252.9 243.92 253.78"></polygon>
            <polygon id="jamaica" points="237.93 279.59 234.45 280.47 234.45 281.44 236.48 282.61 238.61 282.61 239.96 281.05"></polygon>
            <polygon id="irian-jaya" points="830.93 339.34 826.76 339.81 824.08 341.77 825.19 344.01 829.73 344.85 829.73 345.69 826.86 348.02 828.25 352.87 829.64 352.96 830.84 348.2 833.06 348.2 833.99 352.86 844.82 361.82 845.1 368.82 848.8 372.83 850.47 372.74 850.84 348.02 844.55 343.64 838.62 347.65 836.49 348.96 832.97 346.72 832.88 339.63"></polygon>
            <polygon id="alaska-westcopy" points="92.11 44.89 83.72 46.88 85.45 56.33 94.58 58.82 95.07 60.81 81.5 65.04 73.85 77.72 76.56 91.15 81 94.13 84.46 90.9 85.45 92.89 81.25 97.86 64.96 105.32 54.59 107.81 54.34 111.54 78.28 104.58 88.15 101.84 97.28 90.65 107.4 83.94 102.22 92.64 107.9 93.39 117.53 89.16 119.26 96.12 125.92 97.61 132.83 104.32 133.32 109.29 132.33 110.53 133.56 115.25 135.29 115.25 135.54 107.29 137.51 107.29 138 126.93 142.94 122.7 139.48 102.31 134.3 102.31 128.62 95.1 156.51 47.85 128.87 26.22 98.02 32.19 96.79 41.64 103.45 45.62 100.98 52.09"></polygon>
            <polygon id="galapagos" points="193.97 338.18 193.35 340.93 192.2 342.09 192.99 343.51 195.02 342.71 195.99 341.02 195.37 339.24"></polygon>
            <polygon id="banks" points="202.73 35.89 202.95 39.91 194.97 48.18 196.97 54.88 202.73 53.32 206.06 48.4 214.48 45.27 221.35 44.82 216.03 39.01 213.37 41.02 211.37 40.35 210.26 37.89 207.82 35.43"></polygon>
            <polygon id="prince-patrick" points="213.15 24.05 211.38 27.18 220.03 30.31 223.13 25.62 224.46 28.75 226.68 28.75 230.89 24.06 225.79 22.72 223.79 21.16 221.13 23.84"></polygon>
            <polygon id="eglinton" points="228.23 30.31 221.36 33.21 221.36 35.44 230.23 38.79 228.23 41.02 229.56 43.92 235.1 41.46 239.76 41.46 241.98 45.03 245.75 41.23 244.86 37.65 241.76 38.77 241.32 34.3 242.87 31.62 241.32 31.62 238.88 33.18 237.77 34.07 238.44 37.2 236.67 38.54 234.01 38.32 233.34 34.3"></polygon>
            <polygon id="mackenzie-king" points="237.32 23.38 236.65 25.61 240.86 27.62 243.96 25.83 243.74 24.49"></polygon>
            <polygon id="king-christian" points="240.64 19.58 237.54 20.7 237.76 22.26 244.63 21.81 244.41 20.25"></polygon>
            <polygon id="ellef-ringnes" points="255.5 23.38 255.06 24.94 253.95 26.5 253.95 28.73 258.16 28.06 262.59 31.86 264.14 31.86 264.14 28.06 259.71 23.14"></polygon>
            <polygon id="amund-ringnes" points="266.81 27.85 268.58 29.86 267.03 32.54 268.14 35.44 273.02 32.76 273.02 30.75 270.14 27.4"></polygon>
            <polygon id="axel-heiberg" points="273.24 22.71 273.46 26.28 279.45 26.28 281 27.62 280.78 29.18 275.46 29.85 279.23 34.99 284.33 35.88 291.42 32.75 281.22 17.33 278.12 19.34 278.34 22.02 274.79 20.68"></polygon>
            <polygon id="victoria" points="221.58 47.96 213.16 50.19 208.28 54.44 208.72 59.13 217.59 61.81 215.59 66.28 209.16 62.26 207.39 65.61 211.6 68.51 211.38 73.2 217.81 74.99 225.57 74.54 226.9 72.08 232.66 78.56 236.65 77.22 237.32 72.75 240.2 74.76 240.64 70.29 237.09 68.06 237.31 53.99 234.21 51.53 230.89 56"></polygon>
            <polygon id="prince-of-wales" points="248.63 57.79 245.75 56.45 244.2 58.46 247.3 63.38 247.52 68.07 254.17 64.05 254.17 58.24 256.61 55.78 254.17 53.99 250.18 53.99"></polygon>
            <polygon id="prescott" points="262.82 55.78 258.16 59.58 259.27 64.27 262.15 64.27 263.48 61.81 265.48 63.82 267.48 63.6 272.8 59.13"></polygon>
            <polygon id="cornwallis" points="262.37 48.4 261.26 50.63 266.14 52.42 267.47 50.41"></polygon>
            <polygon id="bathurst" points="259.49 39.91 254.61 40.58 251.73 43.26 257.05 43.48 255.5 47.5 256.61 49.29 258.16 49.07 261.93 43.04"></polygon>
            <polygon id="devon" points="267.92 38.35 265.26 39.24 265.7 42.81 270.13 45.71 270.35 47.94 269.02 49.28 269.69 53.75 286.76 59.33 291.42 60.89 296.08 56.87 290.54 52.4 285.44 53.74 278.35 53.07 275.69 50.39 275.02 43.02 270.59 40.79"></polygon>
            <polygon id="baffin" points="281.88 61.59 277 61.14 271.24 63.37 268.14 67.61 269.03 79.23 278.56 79.68 287.65 84.15 294.08 91.52 298.96 91.3 297.63 98.22 293.2 105.59 288.32 107.82 284.77 107.15 283 105.59 280.34 109.16 281.45 112.73 285.22 112.95 289.88 110.72 293.87 121 303.85 127.48 310.72 118.77 304.96 109.39 308.29 105.59 312.95 113.41 321.37 106.04 319.82 102.69 314.06 104.48 310.07 93.53 313.84 87.28 306.3 79.24 302.09 82.14 298.1 73.43 289.68 74.55 287.46 64.05 280.59 68.74 279.92 74.55 276.15 74.55 276.59 69.41"></polygon>
            <polygon id="bylot" points="291.86 65.61 290.09 67.4 291.64 69.86 298.96 70.75 294.3 65.83"></polygon>
            <polygon id="ellesmere" points="284.77 40.36 284.77 42.37 279.89 43.49 281.22 45.72 286.76 47.95 292.97 48.62 297.4 51.75 301.83 49.29 298.73 46.16 302.72 46.16 305.16 43.48 311.15 42.59 311.15 41.25 307.82 39.02 308.26 36.56 317.57 38.12 331.32 32.76 326.22 31.2 327.55 29.41 338.19 29.41 339.96 27.62 318.45 20.02 313.35 18.23 307.81 22.25 301.6 17.11 298.27 16.89 297.6 21.14 293.39 17.34 288.51 18.9 289.4 21.36 296.72 22.92 296.28 26.49 300.27 28.95 310.03 26.49 310.25 29.84 302.27 33.64 297.39 29.84 292.96 30.29 297.39 36.55 295.17 37.67 291.84 34.77 289.4 36.33 291.62 40.57 295.39 40.57 294.5 44.59 291.4 44.14 287.41 39.89"></polygon>
            <polygon id="southhampton" points="265.01 101.85 260.78 107.17 260.52 113.03 264.22 110.9 268.71 110.9 271.88 113.83 274.79 111.43"></polygon>
            <polygon id="newfoundland" points="316.52 171.05 305.95 181.17 307.01 183.57 319.95 188.36 321.8 185.17 320.74 179.85 316.51 180.38 314.13 177.72 318.09 173.73"></polygon>
            <polygon id="canada" points="157.22 48.66 159.21 51.67 160.21 55.69 165.19 56.94 168.68 53.18 171.67 54.69 180.14 55.44 186.12 52.93 187.12 61.21 190.61 61.21 190.61 57.7 194.1 57.95 202.82 68.24 208.55 71.75 205.56 76.52 206.81 77.77 218 80.03 218.25 85.05 221.24 85.55 221.99 78.02 226.72 76.77 230.21 82.04 237.68 85.55 241.42 86.3 243.91 83.29 244.16 78.52 248.64 75.76 250.13 79.78 246.14 86.81 246.64 90.32 248.88 86.81 253.36 82.79 253.61 77.52 251.12 73.5 251.87 70.24 257.85 67.23 260.59 69.24 261.09 86.81 265.32 83.05 267.81 84.56 264.32 90.58 268.8 91.58 275.28 81.54 280.76 87.31 278.52 97.6 273.04 100.61 267.81 98.1 258.35 100.11 259.35 103.37 256.86 107.39 249.14 109.15 240.42 115.93 232.7 126.22 231.7 129.48 236.93 131.49 238.92 136.51 246.14 143.79 257.6 148.81 255.11 160.35 254.86 163.61 257.85 165.62 261.84 160.35 262.34 150.31 268.57 150.06 271.56 144.29 272.06 135.51 280.03 119.95 289.99 123.46 295.22 130.74 292.98 138.02 296.97 140.28 306.68 133.75 309.42 151.57 318.39 162.36 318.64 167.88 308.68 170.39 303.95 175.41 293.99 173.15 289.01 172.9 280.29 179.68 285.52 178.43 292 177.18 293.25 178.69 291.51 184.21 291.76 189.23 294.75 191.24 297.74 190.49 299.24 188.23 301.23 188.23 297.99 194.25 291.76 194.5 289.02 198.52 285.53 198.52 284.53 195.51 289.51 190.49 283.53 192.5 283.26 183.97 281.54 182.97 276.31 185.23 275.81 189.5 263.85 189.5 253.64 196.53 239.94 201.05 238.45 199.04 245.35 188.74 241.43 184.97 238.94 180.19 233.87 176.32 228.43 175.87 218.68 169.04 147.97 157.42 146.8 152.63 140.32 146.61 140.32 141.59 141.32 137.07 140.82 134.56 138.33 132.05 137.83 128.03 144.31 123.51 140.32 101.93 134.84 101.68 129.86 95.15"></polygon>
            <polygon id="usa" points="147.76 158.34 146.76 162.36 143.27 160.1 141.53 160.1 140.53 164.37 128.32 191.73 131.56 215.57 135.55 217.58 136.3 224.11 144.52 224.11 152.49 230.13 168.18 231.64 169.92 239.67 172.41 241.43 175.9 237.92 178.64 239.17 181.13 250.71 185.36 253.47 188.85 246.94 199.56 239.16 206.53 242.42 212.51 242.92 212.76 239.16 225.21 239.41 227.7 242.17 228.2 248.44 226.71 251.95 228.45 257.97 232.19 257.97 235.93 252.2 234.44 249.44 232.95 243.42 235.19 236.64 245.4 227.86 253.12 225.6 252.12 218.32 262.83 206.77 273.54 205.01 271.8 199 282.26 192.98 282.26 184.95 281.26 184.45 277.52 185.7 277.02 190.62 264.59 190.77 254.85 197.24 239.56 202.24 237.12 199.25 244.06 188.75 240.63 185.48 238.3 181.04 233.47 177.16 228.22 176.72 218.3 169.95"></polygon>
            <polygon id="haida-gwaii" points="132.83 128.41 131.13 131.67 131.72 133.98 132.83 134.67 132.57 135.61 131.38 135.95 131.72 139.38 133 140.67 134.02 139.56 132.74 136.22 133.5 133.56 135.37 131.07 134.01 128.76"></polygon>
            <polygon id="vancouver" points="138.45 147.95 136.92 148.55 139.73 151.81 140.41 155.67 143.22 158.67 145.6 158.24 145.6 154.3 142.71 152.5"></polygon>
            <polygon id="guatemala" points="193.88 291.52 199.81 295.86 205.79 288.43 204.77 286.89 202.73 286.82 202.73 282.47 201.2 281.54 196.57 282.92 198.34 287"></polygon>
            <polygon id="honduras" points="206.55 288.78 215.79 288.43 218.53 291.69 216.82 291.3 213.53 291.44 209.23 295.48 207.39 299.57 206.18 298.93 206.17 294.45 203.51 292.67"></polygon>
            <polygon id="el-salvador" points="200.65 296.27 205.35 298.61 205.28 294.9 202.87 293.43"></polygon>
            <polygon id="nicaragua" points="216.74 292.11 218.93 292.55 219 297.04 216.45 304.32 209.58 303.64 208.05 300.13 210.09 295.87 213.96 292.27"></polygon>
            <polygon id="costa-rica" points="216.38 304.98 217.77 307.7 218.9 309.2 217.38 313.71 214.48 311.67 209.74 307.33 209.74 304.46"></polygon>
            <polygon id="panama" points="219.59 309.61 218.13 314.17 222.95 315.42 225.94 316.01 226.45 312.48 229.66 310.86 232.51 312.33 233.63 314.12 234.99 313.96 236.06 310.71 232.5 309.24 229.8 307.77 227.1 309.61 223.89 311.23 220.61 309.91"></polygon>
            <polygon id="colombia" points="252.73 299.78 250.67 299.57 237.05 310.8 235.61 314.75 233.75 314.96 234.58 323.69 229.83 335.34 234.99 339.71 241.6 340.13 246.14 346.79 252.74 347 252.53 351.99 255 351.99 257.68 342.84 255.2 339.72 255.82 333.9 260.98 333.48 260.36 319.96 248.8 316.22 246.12 308.94"></polygon>
            <polygon id="venezuela" points="249.46 305.92 249.9 308.51 253.15 309.54 253.89 304.77 257.32 301.22 260.75 305.24 268.64 307.39 275.32 305.99 279.87 311.6 283.3 313.75 279.54 319.48 280.8 323.82 278.65 326.48 276.42 328.35 271.59 325.92 270.48 327.04 270.48 330.5 274.01 332.18 271.41 334.99 268.81 337.8 265.38 337.52 261.93 333.73 261.2 319.47 249.42 315.45 247.28 309.18"></polygon>
            <polygon id="guyana" points="284.05 314.13 291.27 320.67 288.4 323.99 288.17 325.96 291.94 329.85 291.85 333.59 285.29 336.09 281.36 330.78 282.2 324.4 280.52 319.65"></polygon>
            <polygon id="suriname" points="292.13 321.14 294.17 323.01 297.33 321.05 300.21 321.14 299.84 322.26 298.63 324.78 298.44 331.05 292.69 333.39 292.97 329.37 289.26 325.91 289.45 324.13"></polygon>
            <polygon id="guyane" points="301.13 321.8 306.98 325.45 303.92 331.53 302.81 332.93 299.56 331.06 299.65 324.51"></polygon>
            <polygon id="ecuador" points="229.2 335.85 224.47 338.79 224.13 343.15 223.18 344.58 226.16 347.44 224.87 348.85 225.17 352.45 230.5 353.72 238.57 344.17 238.55 340.84 234.68 340.59"></polygon>
            <polygon id="peru" points="224.03 349.52 222.09 351.48 222.22 354.61 239.16 385.49 256.75 396.83 259.47 392.27 260.12 382.24 258.7 375.99 253.91 367.91 251.06 368.82 249.77 370.25 244.08 363.73 245.5 356.04 252.1 351.74 251.58 347.7 244.86 347.44 241.37 341.58 239.43 340.93 239.56 344.45 230.9 354.74 224.43 353.18"></polygon>
            <polygon id="bolivia" points="257.71 372.79 265.94 369.2 268.66 369.46 270.47 377.02 283.01 381.19 285.08 387.58 290.25 388.23 292.45 393.7 290.9 398.65 282.49 399.3 279.39 407.25 272.79 407.12 270.72 406.73 266.91 410.43 265.03 410.25 258.56 395.26 260.35 392.58 260.98 381.98 259.38 375.67"></polygon>
            <polygon id="paraguay" points="290.76 399.51 292.96 401.91 292.7 406.99 299.04 406.6 303.83 412.73 303.44 418.2 300.34 422.89 294 423.15 293.74 420.54 295.55 416.24 289.34 412.33 284.17 412.33 280.29 408.16 283.11 400.1"></polygon>
            <polygon id="uruguay" points="299.36 431.93 297.31 434.12 298.16 445.9 304.6 447.77 312.79 439.56"></polygon>
            <polygon id="argentina" points="304.47 418.2 306.41 420.02 299.04 430.97 296.45 433.84 297.35 446.35 303.04 453.26 298.26 461.6 294.64 463.16 290.5 463.16 291.66 469.67 285.19 471.89 286.74 477.36 282.86 489.74 287.65 493.65 285.06 500.03 280.66 506.94 282.99 511.76 277.3 512.67 272.64 506.94 271.86 489.09 264.62 458.77 266.81 448.17 262.15 434.62 265.25 417.03 268.1 413.64 267.4 411.07 271.06 407.73 279.22 408.29 283.78 413.16 289.05 413.25 294.45 416.55 292.86 420.27 293.24 424.03 300.89 423.67"></polygon>
            <polygon id="tierra-del-fuego-chile" points="284.04 514.1 279.77 523.48 287.14 524.26 287.27 518.01"></polygon>
            <polygon id="tierra-del-fuego-argentina" points="287.92 518.79 288.18 524.52 292.58 524.13 296.33 521.65 289.99 520.35"></polygon>
            <polygon id="chile" points="282.59 512.63 279.38 516.18 278.99 520.35 272.78 516.83 266.18 507.32 264.24 503.93 266.96 500.41 266.7 495.98 263.6 494.68 261.14 492.86 261.66 490.38 264.89 489.47 265.54 475.14 260.5 472.27 257.21 397.68 258.06 396.2 264.5 411.05 266.56 411.09 267.23 413.46 264.49 416.78 261.34 434.65 265.82 448.41 263.75 458.83 271.05 489.47 271.82 507.39 277.05 513.44"></polygon>
            <polygon id="chiloe" points="261.28 475.14 259.99 477.09 260.64 480.48 261.93 480.61 262.58 476.31"></polygon>
            <polygon id="brazil" points="313.24 438.85 319.49 426.83 319.72 416.73 331.38 409.21 337.91 409.21 343.04 400.52 343.97 383.84 341.87 379.38 354.23 368.1 354.7 355.65 337.91 347.43 317.63 341.09 308.07 340.15 310.64 334.75 309.94 326.53 307.85 325.84 304.76 331.98 303.14 334.01 298.98 332.17 284.99 337.1 280.33 331.23 281.08 325.1 276.68 329.58 271.82 326.96 271.33 327.65 271.34 329.78 275.53 332.03 269.24 338.66 265.27 338.62 261.25 334.53 256.7 334.67 256.14 339.53 258.75 342.7 255.67 352.57 252.07 352.85 246.34 356.47 244.94 363.58 249.91 368.9 250.82 367.87 254.31 366.93 257.29 371.95 265.82 368.29 269.13 368.48 271.41 376.55 283.58 380.41 285.68 386.85 290.86 387.47 293.33 393.62 291.66 399.09 293.84 401.95 293.52 406.21 299.36 405.66 304.71 412.42 304.29 417.17 307.46 419.85 299.86 431.36"></polygon>
            <polygon id="belize" points="203.56 282.4 203.51 286.05 204.35 286.05 207.21 280.71 205.27 280.71"></polygon>
            <polygon id="russia" points="816.97 72.93 818.73 79.01 822.25 80.02 825.77 74.45 823.76 70.65 824.51 67.36 829.79 67.36 828.53 69.89 829.03 79.01 821.49 97.75 822.24 101.8 821.99 108.64 836.06 129.15 838.82 129.91 839.07 113.2 841.83 110.67 838.81 104.09 841.32 101.3 835.79 93.96 832.77 94.21 831.77 82.06 839.56 80.03 840.06 76.48 844.08 75.47 846.34 77.5 849.1 66.36 853.87 58.26 857.64 56.23 860.91 56.48 860.91 52.68 855.63 51.67 848.34 45.59 851.86 41.54 848.84 34.7 851.35 32.17 854.37 36.22 861.91 39.01 870.2 39.77 871.21 36.23 866.94 31.93 871.71 25.35 860.9 21.55 858.14 27.12 854.62 22.56 834.77 15.72 815.92 19.01 813.16 20.53 813.16 22.05 817.18 24.08 816.68 28.89 809.39 25.85 793.31 32.18 790.55 26.36 779.49 26.36 774.46 31.68 756.62 27.63 740.29 30.92 738.28 35.98 740.79 36.74 740.54 40.54 724.71 42.31 725.72 47.37 711.14 44.84 714.66 38.26 699.83 37.5 701.09 44.34 696.32 46.62 692.3 42.82 675.97 45.61 669.69 51.43 669.44 54.97 665.42 55.22 664.92 51.17 677.74 40.03 677.74 32.43 669.45 30.15 658.64 33.69 654.12 29.13 652.11 29.13 649.6 34.19 651.61 36.47 637.28 44.32 624.97 53.69 617.43 64.07 617.43 68.37 625.47 71.66 621.45 74.7 612.91 71.66 609.39 74.7 604.11 68.62 603.1 70.9 608.88 89.13 610.39 89.64 614.41 87.61 616.42 89.13 616.42 92.42 612.65 90.9 610.39 92.67 611.9 95.96 610.64 104.57 602.85 105.33 602.35 102.54 606.87 99.75 607.88 92.15 602.85 85.57 601.09 74.18 593.05 72.91 592.3 76.96 593.81 78.99 590.54 81.78 591.8 89.38 596.57 91.41 597.58 96.98 592.8 93.94 580.49 91.66 578.98 95.71 569.18 99.25 567.67 96.72 554.85 103.81 554.6 108.62 549.57 109.38 551.08 105.84 551.08 102.3 546.05 100.53 542.78 101.8 545.54 107.12 547.55 110.66 547.55 113.45 543.78 112.69 543.03 111.93 539.26 115.98 541.27 119.52 532.73 119.27 535.49 122.82 534.74 124.34 530.22 124.34 526.95 122.06 526.2 115.73 520.92 113.7 520.92 111.17 531.98 113.45 538.01 113.96 540.52 110.16 538.26 106.11 522.18 99.78 516.63 101.16 514.73 102.79 515.32 106.54 517.68 106.95 517.13 112.85 524.41 129.95 519.15 138.29 518.79 140.17 521.46 142.05 519.05 143.64 517.45 143.67 517.75 151.02 519.96 154.15 519.99 157.19 522.82 157.45 527.15 159.1 531.73 165.4 531.78 167.06 530.29 169.61 533.71 169.42 537.04 170.38 541.54 176.75 552.62 177.76 552.14 185.34 548.32 188.61 549.11 189.89 545.34 193.94 544.34 197.74 546.6 201.03 553.89 203.56 556.91 201.79 576.26 209.13 577.01 207.1 572.99 203.3 572.99 198.49 570.48 197.73 570.98 193.68 575 188.87 567.79 183.47 568.29 175.96 576 170.89 585.05 171.4 586.56 174.19 595.86 174.7 602.65 170.9 599.13 167.1 599.88 160.01 617.47 151.4 631 157.5 635.52 153.45 648.84 166.11 658.89 165.1 662.41 168.64 671.96 169.65 678.24 161.04 686.28 164.59 690.55 165.35 694.82 161.55 691.05 159.02 694.32 153.96 703.62 157 705.63 161.05 709.65 161.3 712.16 159.53 718.95 159.28 719.7 161.05 727.49 161.56 732.77 155.99 743.58 157.26 746.85 155.99 747.85 149.91 744.58 142.57 747.85 139.78 758.15 139.78 767.95 151.43 780.51 158.52 784.28 158.52 784.78 155.48 789.3 152.69 789.8 169.15 785.78 169.4 785.78 173.45 788.04 176.24 787.62 179.86 789.29 180.55 790.3 178.02 791.81 178.53 792.81 179.54 797.33 178.53 801.85 165.36 802.35 148.9 796.57 135.73 789.28 126.87 785.76 127.38 785.76 130.17 777.22 126.88 780.49 119.79 783.25 101.05 794.81 97.51 800.34 93.97 806.37 93.97 804.86 96 806.37 98.53 811.65 92.96 814.67 93.21 814.17 89.92 809.39 88.91 812.66 77.01"></polygon>
            <polygon id="china" points="669.4 170.07 665.94 178.77 661.17 178.52 656.14 189.53 660.41 194.97 651.61 207.12 647.09 206.36 644.07 210.16 644.82 212.44 648.34 212.69 650.1 216.74 653.62 217.5 664.43 231.43 664.43 238.52 669.71 241.81 675.49 240.8 682.78 245.1 691.58 247.63 695.85 247.12 700.63 246.61 710.68 240.03 713.95 240.54 715.2 243.51 717.97 244.34 721.74 249.91 719.23 255.48 720.74 259.28 725.01 260.8 725.76 265.36 730.79 265.87 731.54 263.59 738.83 259.79 743.35 260.04 748.63 265.86 752.15 264.34 754.41 264.59 755.42 267.38 757.18 267.63 759.69 264.09 769.74 260.29 778.79 249.4 781.81 239.02 781.56 232.18 777.79 231.42 780.05 228.89 779.55 224.84 770 215.22 770 210.41 772.76 206.87 775.52 205.6 775.77 202.81 768.73 202.81 767.47 206.61 764.2 205.85 760.18 201.55 762.69 194.97 766.21 191.17 769.48 191.42 768.98 197.24 770.74 198.76 775.01 194.46 776.52 194.21 776.02 190.92 780.04 186.11 783.06 186.36 784.82 180.79 786.88 179.7 787.09 176.23 785.09 174.13 784.92 168.65 788.77 168.4 788.52 154.27 785.82 155.89 784.81 159.51 780.3 159.5 767.23 152.15 757.79 140.77 748.21 140.67 745.77 142.79 748.87 149.89 747.79 156.55 743.93 158.15 741.76 157.98 741.6 164.57 743.86 165.08 747.88 163.31 753.16 165.84 753.16 168.37 749.39 168.62 746.37 175.2 743.61 175.45 733.81 188.36 723.51 192.92 716.47 193.43 711.7 190.14 704.91 193.69 697.62 191.41 695.86 186.6 683.55 185.84 677.02 175.21 674.26 175.21 672.04 170.28"></polygon>
            <polygon id="mongolia" points="672.8 170.17 678.62 162.45 685.61 165.68 690.36 166.95 696.18 161.61 692.23 158.7 694.83 155.03 702.59 157.77 705.28 162.18 710.14 162.31 712.68 160.42 717.91 160.21 719.05 162.15 727.74 162.59 733.24 156.98 740.85 157.78 740.41 165.42 743.74 166.18 747.83 164.32 752.16 166.46 752.06 167.54 748.92 167.63 745.65 174.49 743.11 174.74 733.23 187.65 723.14 192.1 716.83 192.59 711.59 189.21 704.89 192.79 698.29 190.74 696.42 185.95 683.92 185.07 677.52 174.22 674.41 174.02"></polygon>
            <polygon id="north-korea" points="777.28 194.27 779.12 195.04 779.68 201.48 783.33 201.69 786.77 197.66 785.58 196.6 785.72 192.28 788.88 188.46 787.27 185.56 788.32 184.36 788.9 181.36 787.07 180.53 785.51 181.32 783.58 187.18 780.46 186.91 776.85 191.17"></polygon>
            <polygon id="south-korea" points="787.34 198.2 793.52 203.24 794.57 208.12 794.36 210.74 791.34 214.14 788.74 214.28 785.79 207.91 784.67 204.87 785.86 203.95 785.58 202.68 784.11 202.02"></polygon>
            <polygon id="kazakhstan" points="575.69 188.62 579.79 186.87 584.37 186.71 584.69 193.71 582.01 193.71 579.96 197.05 582.64 201.5 586.59 203.73 586.95 206.28 588.4 205.8 589.74 204.21 591.95 204.69 593.06 206.92 595.9 206.92 595.9 204.06 594.16 198.97 593.37 194.84 598.42 192.61 605.21 193.72 609.47 198.01 619.1 197.06 624.47 204.69 630.78 205.01 632.52 202.15 634.73 201.67 635.05 198.49 638.36 198.33 640.1 200.4 641.84 196.27 656.83 198.34 659.35 195 655.09 189.75 660.77 177.35 665.35 177.67 668.51 170.04 662.2 169.4 658.57 165.9 648.57 167.06 635.69 154.61 631.15 158.64 617.38 152.39 600.49 160.66 600.02 166.54 603.97 171.15 596.27 175.5 586.28 175.28 584.19 172.21 576.36 171.78 568.94 176.55 568.78 183.07"></polygon>
            <polygon id="turkmenistan" points="592.85 207.59 592.23 210.22 588.08 210.22 588.08 213.78 592.54 216.72 591.16 220.75 591.16 222.61 593.01 222.92 595.47 219.67 601.01 218.43 612.85 222.92 613 226.17 619.61 226.79 626.99 219.04 626.07 216.56 621.15 215.48 607.31 206.49 606.69 203.24 601.46 203.24 599.15 207.58 596.84 207.58"></polygon>
            <polygon id="uzbekistan" points="627.92 219.06 631 219.22 631 213.95 628.08 212.25 633 206.05 635 206.05 637 208.38 642.23 206.37 635 203.89 634.72 202.39 633 202.81 631.31 205.75 624.02 205.51 618.67 197.94 609.27 198.87 604.79 194.43 598.59 193.38 594.09 195.21 596.7 203.89 596.73 206.81 598.63 206.85 600.96 202.41 607.16 202.49 608.08 205.9 621.37 214.72 626.51 215.9"></polygon>
            <polygon id="tajikistan" points="629.19 211.84 633.3 206.74 634.85 206.74 635.39 207.88 633.49 209.26 633.49 210.4 634.74 211.3 640.75 211.66 642.71 210.82 643.6 211 644.2 212.92 647.77 213.28 649.56 217.06 649.02 218.2 648.31 218.26 647.6 216.82 646.05 216.7 643.37 217.06 643.19 219.58 640.51 219.4 640.63 216.22 638.67 214.3 635.69 216.76 635.75 218.38 633.13 219.28 631.58 219.28 631.7 213.7"></polygon>
            <polygon id="kirgizstan" points="635.81 199.21 635.5 201.74 635.75 203.3 644.45 206.22 636.81 209.3 635.94 208.58 634.29 209.64 634.37 210.22 635.25 210.62 640.61 210.76 643.33 209.94 646.82 205.54 651.19 206.3 656.46 199 642.36 197.08 640.41 201.81 637.95 199.17"></polygon>
            <polygon id="afghanistan" points="613.12 227.05 614.71 239.51 618.67 240.38 619.04 242.62 616.2 244.99 621.49 249.26 631.77 245.56 632.59 241.18 639.06 237.14 641.54 227.78 643.39 225.79 641.47 222.45 647.73 218.58 646.93 217.46 644.04 217.64 643.78 220.3 639.9 220.26 639.83 216.71 638.58 215.22 636.48 217.13 636.54 218.88 633.37 220.08 627.52 219.71 619.92 227.67"></polygon>
            <polygon id="pakistan" points="622.13 249.84 624.73 253.7 624.48 255.69 621.02 257.06 620.77 260.3 624.73 260.3 626.09 259.18 633.63 259.18 640.43 265.16 641.3 262.29 646.37 262.29 646.49 258.68 641.3 253.7 642.41 250.96 647.73 250.59 654.9 235.64 650.94 232.53 649.46 227.3 659.1 226.43 653.41 218.33 650.38 217.51 649.14 219.01 648.21 219.08 642.52 222.69 644.38 225.81 642.28 228.05 639.68 237.64 633.25 241.75 632.38 246.24"></polygon>
            <polygon id="india" points="669.98 313.01 674.56 310.77 677.28 300.93 677.16 288.85 692.74 272.03 692.74 268.04 695.95 266.79 695.83 262.18 692.37 255.45 694.35 251.84 698.68 255.83 704.24 256.08 704.24 258.32 702.51 260.19 702.88 261.19 705.85 261.31 706.47 264.67 707.34 264.67 709.57 260.68 710.68 250.22 714.39 247.6 714.51 243.99 713.03 241.12 710.68 241 701.48 247.08 702.06 250.99 695.6 250.97 693.32 248.18 692.08 248.34 692.5 252.22 678.53 251.22 669.87 247.36 669.41 242.61 663.64 239.03 663.57 231.66 659.61 227.13 650.51 228 651.5 231.96 655.96 235.57 648.25 251.35 643.09 251.74 642.24 253.64 647.32 258.34 647.07 263.09 641.88 263.01 641.32 265.37 645.63 265.18 645.75 267.05 642.66 268.67 644.64 272.41 648.47 273.66 650.82 271.92 651.93 268.81 653.29 268.19 654.9 269.81 654.41 273.8 653.3 275.67 653.55 278.91"></polygon>
            <polygon id="nepal" points="670.19 242.56 670.65 246.83 678.73 250.49 691.68 251.45 691.19 248.32 682.54 245.94 675.2 241.57"></polygon>
            <polygon id="bhutan" points="694.4 248.08 695.95 250.2 701.19 250.24 700.66 247.34"></polygon>
            <polygon id="bangladesh" points="694.57 253.11 693.26 255.48 696.66 261.94 696.76 266.98 697.38 268.33 701.37 268.4 703.63 266.23 705.27 267.22 705.6 270.29 706.91 269.47 706.99 265.55 705.89 265.42 705.2 262.09 702.42 261.99 701.73 260.14 703.43 257.87 703.46 256.75 698.52 256.75"></polygon>
            <polygon id="burma" points="728.44 303.65 725.67 299.21 727.68 296.39 725.78 292.9 723.99 292.56 723.65 286.7 720.97 281.51 720.19 282.75 718.4 285.79 716.16 286.13 715.04 284.66 714.48 280.71 712.8 277.55 705.96 271.1 707.64 269.99 707.95 265.32 710.45 261.12 711.53 250.67 715.15 248.2 715.27 244.39 717.44 245.11 720.86 250.06 718.32 255.5 720.03 259.77 724.26 261.43 725.03 266.08 730.71 266.96 729.14 269.67 721.98 272.49 721.2 277.11 726.46 283.87 726.68 287.48 725.45 288.72 725.56 289.85 729.48 295.6 729.59 301.57"></polygon>
            <polygon id="thailand" points="729.03 270.47 732.27 274.64 732.27 279.71 733.39 280.27 738.54 277.79 739.55 278.13 745.7 285.23 745.48 290.08 743.47 289.74 741.68 288.61 740.34 288.72 737.99 292.66 738.44 294.8 740.34 295.81 740.23 298.18 738.89 298.86 734.3 295.7 734.3 292.88 732.4 292.77 731.62 294.01 731.22 306.63 734.19 312.05 739.45 317.12 739.23 318.59 736.43 318.48 733.86 314.65 731.17 314.65 727.81 311.94 726.8 309.12 728.25 306.75 728.75 304.61 730.33 301.81 730.26 295.37 726.4 289.79 726.24 289.11 727.49 287.85 727.2 283.42 722.06 276.91 722.66 273.16"></polygon>
            <polygon id="malaysia" points="731.71 315.45 733.72 319.96 734.17 325.82 736.86 329.99 743.35 333.93 745.81 334.16 745.36 330.1 743.23 324.92 740.11 318.29 739.85 319.45 736.09 319.28 733.39 315.4"></polygon>
            <polygon id="cambodia" points="739.48 299.47 743.57 303.84 751.18 298.2 751.85 289.3 747.92 292.01 745.88 290.87 743.11 290.5 741.56 289.41 740.81 289.45 738.78 292.78 739.11 294.32 741.17 295.47 740.92 298.6"></polygon>
            <polygon id="laos" points="734.47 262.93 732.05 264.16 730.04 270.02 733.4 274.3 732.84 279.03 733.4 279.26 738.99 276.55 746.49 284.93 746.31 290.21 747.94 291.09 751.97 287.82 751.64 285.23 740.01 274.18 740.12 272.49 741.57 271.48 740.56 268.66 735.75 267.87"></polygon>
            <polygon id="vietnam" points="744.06 304.45 745.25 306.32 745.47 308.46 748.6 308.8 752.4 303.73 755.98 302.72 757.88 297.54 756.99 289.2 753.3 284.13 749.41 281.02 744.46 272.52 748.01 266.58 742.93 260.75 738.86 260.57 735.2 262.54 736.29 267.25 741.17 268.11 742.48 271.74 740.76 272.86 740.87 273.76 752.32 284.96 752.77 288.25 752.08 298.65"></polygon>
            <polygon id="georgia" points="554.46 204.16 557.73 208.43 561.81 210.31 564.32 210.3 568.63 209.13 569.71 207.44 556.96 202.67"></polygon>
            <polygon id="armenia" points="568.72 209.89 573.52 216.15 572.11 217.8 568.71 217.21 564.49 213.43 564.72 210.95"></polygon>
            <polygon id="azerbaijan" points="570.41 207.72 569.4 209.44 574.11 215.62 575.75 215.09 578.45 217.92 579.62 212.96 582.55 213.43 582.43 212.01 577.61 207.79 576.69 210.27"></polygon>
            <polygon id="iran" points="568.65 217.95 567.43 219.22 567.55 221.23 569.07 223.36 574.46 229.26 573.64 231.62 572.7 231.62 572.23 233.98 575.28 237.88 578.09 238.12 583.72 245.91 586.88 246.15 589.34 247.92 589.46 251.46 599.19 257.13 602.82 257.13 605.05 255.24 607.86 255.12 609.5 258.9 620.01 260.36 620.32 256.5 623.8 255.24 623.96 253.86 621.19 250.08 615.02 245.12 618.26 242.17 618.03 240.87 613.97 240.24 612.25 226.54 612.05 223.39 601.04 219.18 596.16 220.28 593.43 223.63 591.01 223.47 590.31 224.06 584.92 223.71 578.12 218.75 575.59 215.98 574.43 216.26 572.34 218.65"></polygon>
            <polygon id="turkey" points="557.7 209.19 555.47 211.55 547.27 211.31 542.35 208.36 537.55 208.24 532.04 212.14 526.88 212.38 526.41 215.33 520.55 215.33 518.21 217.46 518.21 218.64 519.62 219.82 519.62 221.12 519.03 222.66 519.62 223.96 521.5 223.02 523.38 225.03 522.91 226.45 522.21 227.4 523.26 228.58 528.42 229.64 532.05 228.1 532.05 225.86 533.81 226.21 538.03 228.69 542.6 227.98 544.59 226.09 545.88 226.56 545.88 228.69 547.64 228.69 549.16 225.74 562.52 224.32 568.35 223.61 566.81 221.59 566.78 218.86 567.95 217.46 563.69 214.04 563.92 211.09 561.58 211.09"></polygon>
            <polygon id="yemen" points="570.99 289.23 572.43 293.51 572.43 297.69 575.89 300.83 600.27 290.9 600.5 288.17 596.59 281.15 586.78 284.28 581.15 289.82 574.62 285.96"></polygon>
            <polygon id="oman" points="597.38 280.84 604.77 276.58 606.08 270.33 604.46 269.4 605.13 262.7 606.54 261.88 608.05 264.25 617.04 268.95 617.04 271.56 606.15 287.59 601.14 287.76"></polygon>
            <polygon id="emirates" points="593.01 264.94 593.88 268.42 603.74 269.29 604.43 262.15 606.33 261.11 606.85 258.5 603.74 259.37 600.28 264.6"></polygon>
            <polygon id="qatar" points="591.63 259.02 591.11 263.03 592.65 264.2 594.05 264.07 594.57 259.02 593.36 258.15"></polygon>
            <polygon id="kuwait" points="582.29 247.17 580.04 245.95 578.48 247.52 578.65 250.66 582.28 252.05"></polygon>
            <polygon id="saudi" points="583 253.24 590.01 263.01 592.27 264.81 593.28 269.19 604.07 270.04 605.29 270.68 604.08 276.08 596.99 280.26 586.62 283.4 581.09 288.8 574.52 284.97 570.54 288.45 565 279.4 561.2 277.66 559.82 275.57 559.82 271.04 545.99 254.32 545.47 251.36 549.45 251.36 554.29 247.18 554.46 245.09 553.08 243.7 555.85 241.44 561.73 241.79 571.76 250.15 577.68 249.88 578.06 251.34"></polygon>
            <polygon id="syria" points="545.67 229.13 545.32 231.67 548.14 232.85 548.02 239.89 550.84 239.83 553.66 237.7 554.72 237.52 561.12 232.43 562.41 225.04 549.62 226.34 548.27 229.3"></polygon>
            <polygon id="iraq" points="563.31 225.03 561.75 232.74 555.29 238.12 555.7 240.66 562.01 241.09 572.06 249.27 577.68 249.11 577.83 247.22 579.89 245.01 582.77 246.64 583.15 246.28 577.58 238.87 574.94 238.71 571.43 234.2 572.13 230.88 573.2 230.74 573.57 229.27 568.79 224.24"></polygon>
            <polygon id="jordan" points="547.9 240.78 545.44 249.36 545.33 250.67 549.2 250.67 553.53 246.85 553.64 245.4 551.87 243.59 555.04 240.96 554.58 238.52 553.71 238.72 551.07 240.61"></polygon>
            <polygon id="lebanon" points="545.2 232.44 545.26 234.39 544.44 237.35 547.26 237.59 547.44 233.39"></polygon>
            <polygon id="israel" points="544.32 238.06 542.74 243.09 544.79 249.12 547.14 240.31 547.14 238.42"></polygon>
            <polygon id="cyprus" points="542.21 229.84 543.44 230.73 539.63 234.34 537.81 234.28 536.46 233.33 536.64 231.56 539.4 231.38"></polygon>
            <polygon id="norway" points="514.46 102.14 516.48 100.66 516.3 99 515.02 98.26 515.2 96.23 516.3 96.23 516.3 95.12 511.53 93.83 504.38 94.57 503.65 97.71 502 97.16 500.9 95.31 497.41 95.49 497.04 99 495.39 99.74 494.47 97.89 487.13 103.8 488.6 105.46 485.85 106.75 479.61 119.13 477.41 120.61 477.59 121.72 479.79 122.83 479.24 125.23 475.57 125.04 474.47 123.75 472.09 126.52 470.62 127.63 470.25 130.22 468.97 130.96 465.67 131.7 464.02 136.88 465.12 145.38 466.4 149.26 467.87 150.74 471.17 150.56 475.94 145.94 477.77 142.8 478.32 147.42 481.44 141.88 481.62 126.35 484.16 124.75 484.92 116.18 492.62 105.09 496.29 103.8 497.94 101.77 503.44 103.06 506.19 104.72 507.11 100.1 511.7 97.33"></polygon>
            <polygon id="britain" points="445.12 149.08 443.29 151.85 444.02 152.96 448.24 152.96 448.24 154.81 447.14 156.29 447.87 160.17 450.25 164.79 452.08 169.04 455.01 170.15 456.29 172.37 456.11 174.4 454.28 175.51 454.1 176.43 455.38 177.17 454.28 178.65 451.71 179.76 446.76 179.21 439.05 182.72 436.48 181.43 443.82 177.18 442.9 176.63 439.05 176.26 441.43 172.75 441.8 169.79 444.92 169.42 444.37 163.69 440.7 163.51 439.6 162.22 439.78 157.97 437.58 158.15 439.78 150.76 443.82 147.8"></polygon>
            <polygon id="ulster" points="437.42 161.47 434.12 161.84 433.94 164.8 436.14 166.28 438.52 165.73 439.44 164.07"></polygon>
            <polygon id="ireland" points="438.51 166.55 437.6 172.55 429.53 175.51 426.96 175.51 425.13 174.22 425.13 173.11 429.17 170.52 428.07 168.3 428.25 165.16 431.74 165.34 433.34 161.58 433.13 164.92 435.84 167.07"></polygon>
            <polygon id="sweden" points="496.72 104.58 498.68 106.39 502.35 106.39 504.37 110.27 504.92 116.92 499.97 120.43 499.97 123.94 496.48 128.75 494.46 128.93 491.71 133.55 491.89 137.99 496.66 141.5 496.29 143.53 494.46 146.3 491.71 148.7 491.89 156.65 487.67 158.13 486.2 161.27 484.18 161.27 483.08 155.73 478.49 148.69 482.26 142.38 482.52 126.79 485.12 125.36 485.75 116.44 493.16 105.83"></polygon>
            <polygon id="finland" points="505.79 116.94 507.86 117.85 509.14 120.25 507.86 121.91 501.44 128.93 500.34 132.63 501.81 137.99 506.76 141.69 513.36 138.55 518.68 137.81 523.63 129.86 519.96 121.17 516.47 112.85 517.02 107.49 514.82 107.12 514.25 103.21 511.29 98.38 508.01 100.65 506.72 105.92 503.24 103.83 498.4 102.65 497.32 103.91 499.18 105.59 502.57 105.53 505.3 109.94"></polygon>
            <polygon id="path302" points="517.07 151.37 510.22 150.26 510.37 154.09 516.72 157.97 519.32 157.21 519.17 154.29"></polygon>
            <polygon id="hiumaa" points="505.76 147.64 504.21 147.59 503.31 148.5 503.96 149.46 505.51 149.56 506.31 148.4"></polygon>
            <polygon id="saaremaa" points="505.61 151.72 504.11 151.57 501.41 154.8 501.41 156.31 502.31 156.66 504.06 156.71 506.96 154.34 507.36 153.53"></polygon>
            <polygon id="lithuania" points="509.81 154.7 507.66 154.65 504.71 157.47 502.21 157.47 502.36 161 500.86 163.77 506.26 163.82 507.81 163.62 509.36 165.49 512.91 165.34 516.31 161.01 516.11 158.44"></polygon>
            <polygon id="belarus" points="509.66 166.29 511.16 168.76 510.56 170.73 510.66 172.29 511.21 174.16 514.31 172.4 518.16 172.5 520.86 173.61 527.71 173.61 529.71 168.82 530.91 167.01 530.91 165.8 526.61 159.75 522.81 158.24 519.71 157.89 517.01 158.75 517.11 161.47 513.36 166.21"></polygon>
            <polygon id="poland" points="510.46 174.76 511.31 176.32 511.51 177.98 510.81 179.59 509.21 182.67 507.86 183.28 506.11 182.52 505.06 182.57 502.51 183.53 499.61 182.67 494.91 179.34 490.31 176.87 488.46 174.05 488.11 167.4 491.71 164.27 496.41 162.71 498.16 162.51 497.46 163.92 497.91 164.47 505.82 164.62 507.52 164.57 510.32 168.86 509.62 170.62 509.92 172.69"></polygon>
            <polygon id="spain" points="447.36 205 434.62 205 432.05 203.84 430.81 203.93 429.31 207.05 429.84 210.26 434.71 210.71 435.33 212.76 433.21 224.71 433.3 226.85 436.75 228.72 440.73 228.99 448.69 227.03 452.58 222.13 452.67 217.14 459.57 210.9 459.92 208.14 453.64 208.05"></polygon>
            <polygon id="portugal" points="429.93 211.24 429.31 219.89 427.54 221.49 427.72 222.47 428.96 224.52 428.16 227.02 429.49 227.47 432.59 227.11 432.41 224.61 434.44 213.02 434 211.42"></polygon>
            <polygon id="majorca" points="460.1 217.21 458.51 217.75 458.86 219.18 461.16 219.18 462.13 218.11"></polygon>
            <polygon id="sardinia" points="476.56 213.38 473.91 214.72 474.26 219.89 476.38 220.25 477.97 218.73 477.97 213.83"></polygon>
            <polygon id="corsica" points="476.83 206.96 474.88 208.92 474.7 210.7 476.29 211.68 476.91 211.59 477.26 209"></polygon>
            <polygon id="france" points="459.4 178.7 457.19 179.24 452.77 184.05 451.44 184.14 449.67 182.89 448.52 183.16 447.64 185.92 441.18 186.1 441.36 187.53 445.78 190.47 450.91 194.57 450.82 199.47 448.08 204.28 454.01 207.13 460.03 207.31 461.89 205.17 465.69 205.26 466.75 206.24 470.55 205.97 472.5 203.47 470.02 200.53 469.84 198.66 470.37 196.61 469.13 194.83 467.01 195.45 466.74 193.85 471.43 188.68 471.43 185.56 468.33 183.78 466.74 183.51"></polygon>
            <polygon id="netherlands" points="469.09 168.27 464.56 170.5 465.52 171.37 465.62 173.6 464.66 173.41 463.6 171.76 461.07 175.77 464.96 176.58 466.41 178.11 467.18 178.13 467.69 174.67 470.14 173.64"></polygon>
            <polygon id="belgium" points="460.61 176.52 459.97 178.12 466.85 182.66 468.83 183.13 468.9 180.98 467.17 179.04 466.11 179.04 464.66 177.39"></polygon>
            <polygon id="germany" points="470.14 167.88 473.71 167.3 473.71 164.78 476.7 164.29 478.34 165.94 480.07 166.13 482.77 164.96 485.18 165.64 487.3 167.48 487.59 174.37 489.71 177.19 486.92 177.58 482.29 180.49 482.68 181.46 486.82 185.34 486.53 187.28 482.68 189.22 479.11 189.32 478.24 191.16 476.41 191.16 475.54 189.22 472.36 188.44 472.26 185.24 469.56 183.4 469.85 181.07 468.02 178.55 468.5 175.25 471 174.08"></polygon>
            <polygon id="denmark" points="475.77 151.5 471.62 156.09 471.47 159.08 473.36 164.01 476.32 163.45 475.95 159.42 477.99 157.14 477.95 155.35 476.51 151.62"></polygon>
            <polygon id="sjlland" points="480.44 159.64 479.51 159.6 478.29 160.72 478.44 162.47 481.33 162.55 481.48 160.57"></polygon>
            <polygon id="gotland" points="497.49 150.17 495.38 151.84 496.44 154.29 498.31 152.47"></polygon>
            <polygon id="switzerland" points="471.91 189.38 467.55 194.02 467.64 194.49 469.43 193.93 471.04 196.17 473.76 195.21 475.64 196.67 476.41 196.23 478.73 192.59 478.14 192.03 475.85 191.97 474.74 189.7"></polygon>
            <polygon id="czech" points="487.43 184.87 490.4 184.87 491.86 184.87 494.23 186.56 498.62 182.91 494.36 179.87 490.14 177.83 487.25 178.35 483.33 180.87"></polygon>
            <polygon id="slovakia" points="494.84 187.13 495.53 187.74 495.62 188.78 503.25 188.61 508.89 186.18 508.8 183.71 507.72 184.19 506.17 183.36 505.22 183.32 502.72 184.32 499.32 183.5"></polygon>
            <polygon id="austria" points="479.63 190.12 478.98 191.47 479.54 192.43 481.87 191.95 483.85 191.95 486 193.77 490.57 192.94 493.93 190.94 494.79 189.59 494.66 187.85 491.64 185.59 487.59 185.63 487.25 187.93 482.99 190.01"></polygon>
            <polygon id="hungary" points="495.74 189.6 494.58 191.42 494.67 194.2 496.52 195.15 502.21 195.32 510.14 188.64 510.18 187.16 509.32 186.73 503.59 189.33"></polygon>
            <polygon id="slovenia" points="493.8 191.99 491.26 193.51 486.52 194.55 487.47 197.29 490.79 197.33 493.85 194.77"></polygon>
            <polygon id="croatia" points="494.62 195.16 491.09 198.07 487.51 198.07 487.08 200.59 488.72 201.02 489.54 199.8 490.83 200.93 491.86 204.53 498.93 207.83 499.63 207.03 492.46 199.63 493.19 198.28 500 198.02 500.69 195.85 496.25 195.98"></polygon>
            <polygon id="bosnia" points="493.8 198.94 493.43 199.55 500.14 206.47 502.6 202.85 502.51 201.42 500.36 198.81"></polygon>
            <polygon id="italy" points="471.27 196.98 470.65 198.55 470.82 200.26 473.21 203.05 476.97 202.92 485.27 212.56 490.45 214.06 493.51 216.95 494.24 223.54 495.88 222.58 497.3 218.99 496.95 216.41 499.38 216.19 499.73 214.73 492.88 211.45 486.38 205.06 483.79 201.24 483.16 197.61 486.47 196.82 485.62 194.43 483.59 192.72 481.84 192.64 479.4 193.31 477.1 196.53 475.71 197.45 473.56 196.13"></polygon>
            <polygon id="sicily" points="491.44 223.02 489.99 222.24 485.04 223.02 485.21 224.36 489.66 226.6 490.33 227.33 491.5 227.5"></polygon>
            <polygon id="malta" points="491.61 230.47 489.94 230.81 490 232.66 491.5 233.16 492.17 232.6"></polygon>
            <polygon id="ukraine" points="514.57 173.15 511.67 174.78 512.39 177.86 509.71 183.51 509.73 186 510.99 186.8 519.07 187.2 521.33 185.33 523.75 186.14 527.22 190.77 524.68 195.33 527.7 196.21 531.65 191.66 533.91 192.07 536.01 193.53 534.16 195.97 536.66 199.87 539.32 199.87 540.69 197.27 543.51 196.7 543.59 194.59 538.35 193.78 538.51 191.51 543.59 191.51 549.07 187.12 551.49 185.01 551.89 178.35 541.09 177.38 536.66 171.13 533.6 170.08 529.89 170.24 528.22 174.37 520.62 174.47 518.15 173.33"></polygon>
            <polygon id="moldova" points="519.75 187.71 522.85 192.48 522.59 195.18 523.7 195.23 526.33 190.78 523.17 186.86 521.38 186.12"></polygon>
            <polygon id="romania" points="511.18 187.6 510.92 189.08 505.13 193.9 509.97 201 513.07 203.17 518.65 203.17 520.49 201.63 522.96 201.31 524.8 202.42 528.06 198.71 527.43 196.85 524.12 196 521.86 195.89 521.97 192.71 518.97 187.99"></polygon>
            <polygon id="montenegro" points="503.90234 207.24805 503.85742 206.3125 502.53711 204.45898 500.40039 207.48047 500.82031 208.75 502.56055 209.07031"></polygon>
            <polygon id="serbia" points="504.55078 194.53906 502.5 196.08008 501.5 196.08008 500.82031 198.19922 503.24023 201.00977 503.40039 203.24023 503.05859 203.72266 504.69531 206.02148 504.75195 207.24023 505.92969 208.38086 509.76953 207.21094 509.44922 201.75"></polygon>
            <polygon id="bulgaria" points="510.44 202.39 510.6 207.37 512.28 210.87 518.59 210.98 521.43 208.97 524.22 207.86 523.54 204.68 524.17 202.98 522.75 202.24 520.8 202.4 519.27 203.94 512.85 203.99"></polygon>
            <polygon id="albania" points="503.02 209.76 503.02 214.37 504.34 216.86 505.29 216.75 506.92 213.78 505.97 212.45 505.6 209.16 504.34 207.99"></polygon>
            <polygon id="macedonia" points="509.92 208.01 506.55 209.12 506.71 211.98 507.5 212.99 511.5 211.13"></polygon>
            <polygon id="greece" points="505.71 217.6 505.6 218.93 510.23 221.26 512.44 222.11 511.28 223.33 508.7 223.59 508.33 224.76 509.22 226.77 512.11 228.31 513.37 228.42 513.53 224.97 515.42 222.69 510.26 216.59 510.94 214.52 512.15 214.47 513.99 215.95 515.15 215.37 515.52 213.3 520.94 213.35 521.15 210.17 518.89 211.76 512.26 211.6 507.95 213.83"></polygon>
            <polygon id="thrace" points="522.02 209.7 521.86 213.25 524.96 212.3 526.38 211.35 525.96 209.81 524.49 208.64"></polygon>
            <polygon id="crete" points="515.76 232.59 517.39 232.64 518.07 233.65 520.44 233.65 522.02 233.07 522.55 233.71 521.5 235.09 516.87 235.25 516.03 234.14 515.14 233.61"></polygon>
        </g>
    </g>
</svg>
